Serifas_Text_Heavy.ufo
<glyph name="percent" format="2">
	<advance width="878"/>
	<unicode hex="0025"/>
	<outline>
		<contour>
			<point x="253" y="119" type="line"/>
			<point x="210" y="-7" type="line"/>
			<point x="328" y="-59" type="line"/>
			<point x="620" y="637" type="line"/>
			<point x="662" y="762" type="line"/>
			<point x="545" y="816" type="line"/>
		</contour>
		<contour>
			<point x="203" y="344" type="curve" smooth="yes"/>
			<point x="322" y="344"/>
			<point x="368" y="404"/>
			<point x="368" y="548" type="curve" smooth="yes"/>
			<point x="368" y="693"/>
			<point x="322" y="753"/>
			<point x="203" y="753" type="curve" smooth="yes"/>
			<point x="88" y="753"/>
			<point x="38" y="693"/>
			<point x="38" y="548" type="curve" smooth="yes"/>
			<point x="38" y="404"/>
			<point x="88" y="344"/>
		</contour>
		<contour>
			<point x="203" y="470" type="curve" smooth="yes"/>
			<point x="163" y="470"/>
			<point x="149" y="495"/>
			<point x="149" y="548" type="curve" smooth="yes"/>
			<point x="149" y="602"/>
			<point x="163" y="625"/>
			<point x="203" y="625" type="curve" smooth="yes"/>
			<point x="246" y="625"/>
			<point x="257" y="602"/>
			<point x="257" y="548" type="curve" smooth="yes"/>
			<point x="257" y="495"/>
			<point x="246" y="470"/>
		</contour>
		<contour>
			<point x="684" y="-8" type="curve" smooth="yes"/>
			<point x="803" y="-8"/>
			<point x="849" y="52"/>
			<point x="849" y="196" type="curve" smooth="yes"/>
			<point x="849" y="341"/>
			<point x="803" y="401"/>
			<point x="684" y="401" type="curve" smooth="yes"/>
			<point x="569" y="401"/>
			<point x="519" y="341"/>
			<point x="519" y="196" type="curve" smooth="yes"/>
			<point x="519" y="52"/>
			<point x="569" y="-8"/>
		</contour>
		<contour>
			<point x="684" y="118" type="curve" smooth="yes"/>
			<point x="644" y="118"/>
			<point x="630" y="143"/>
			<point x="630" y="196" type="curve" smooth="yes"/>
			<point x="630" y="250"/>
			<point x="644" y="273"/>
			<point x="684" y="273" type="curve" smooth="yes"/>
			<point x="727" y="273"/>
			<point x="738" y="250"/>
			<point x="738" y="196" type="curve" smooth="yes"/>
			<point x="738" y="143"/>
			<point x="727" y="118"/>
		</contour>
	</outline>
</glyph>
<glyph name="ampersand" format="2">
  <advance width="742"/>
  <unicode hex="0026"/>
  <outline>
    <contour>
      <point x="218" y="402" type="line"/>
      <point x="264" y="402" type="line"/>
      <point x="256" y="440" type="line"/>
      <point x="218" y="454" type="line"/>
    </contour>
    <contour>
      <point x="494" y="127" type="line"/>
      <point x="553" y="128"/>
      <point x="634" y="160"/>
      <point x="634" y="214" type="curve" smooth="yes"/>
      <point x="634" y="365" type="line"/>
      <point x="586" y="264" type="line"/>
      <point x="718" y="287" type="line"/>
      <point x="718" y="387" type="line"/>
      <point x="492" y="405" type="line"/>
    </contour>
    <contour>
      <point x="508" y="78" type="curve"/>
      <point x="501" y="182" type="line"/>
      <point x="483" y="154"/>
      <point x="414" y="147"/>
      <point x="329" y="147" type="curve" smooth="yes"/>
      <point x="198" y="147"/>
      <point x="178" y="167"/>
      <point x="177" y="224" type="curve" smooth="yes"/>
      <point x="176" y="292"/>
      <point x="195" y="316"/>
      <point x="292" y="316" type="curve"/>
      <point x="268" y="422" type="line"/>
      <point x="120" y="422"/>
      <point x="24" y="358"/>
      <point x="24" y="214" type="curve" smooth="yes"/>
      <point x="24" y="29"/>
      <point x="151" y="-21"/>
      <point x="333" y="-21" type="curve" smooth="yes"/>
      <point x="449" y="-21"/>
      <point x="478" y="2"/>
    </contour>
    <contour>
      <point x="557" y="-26" type="line"/>
      <point x="691" y="21" type="line"/>
      <point x="601" y="123" type="line"/>
      <point x="600" y="126" type="line"/>
      <point x="295" y="457" type="line" smooth="yes"/>
      <point x="257" y="499"/>
      <point x="241" y="513"/>
      <point x="241" y="585" type="curve" smooth="yes"/>
      <point x="241" y="620"/>
      <point x="270" y="635"/>
      <point x="359" y="635" type="curve" smooth="yes"/>
      <point x="404" y="635"/>
      <point x="436" y="626"/>
      <point x="482" y="616" type="curve"/>
      <point x="408" y="693" type="line"/>
      <point x="417" y="535" type="line"/>
      <point x="527" y="535" type="line"/>
      <point x="542" y="724" type="line"/>
      <point x="476" y="748"/>
      <point x="423" y="757"/>
      <point x="353" y="757" type="curve" smooth="yes"/>
      <point x="164" y="757"/>
      <point x="101" y="707"/>
      <point x="101" y="580" type="curve" smooth="yes"/>
      <point x="101" y="487"/>
      <point x="157" y="443"/>
      <point x="239" y="438" type="curve"/>
      <point x="271" y="405" type="line"/>
      <point x="160" y="392" type="line"/>
      <point x="462" y="76" type="line"/>
      <point x="471" y="66" type="line"/>
    </contour>
    <contour>
      <point x="485" y="48" type="line"/>
      <point x="548" y="48" type="line"/>
      <point x="548" y="77" type="line"/>
      <point x="493" y="77" type="line"/>
    </contour>
    <contour>
      <point x="552" y="79" type="line"/>
      <point x="600" y="93" type="line"/>
      <point x="600" y="174" type="line"/>
      <point x="542" y="150" type="line"/>
    </contour>
  </outline>
  <guideline angle="0" x="0" y="-18"/>
</glyph>
<glyph name="quotesingle" format="2">
  <advance width="206"/>
  <unicode hex="0027"/>
  <outline>
    <contour>
      <point x="13" y="740" type="line"/>
      <point x="193" y="740" type="line"/>
      <point x="143" y="440" type="line"/>
      <point x="60" y="440" type="line"/>
    </contour>
  </outline>
</glyph>
<glyph name="parenleft" format="2">
  <advance width="500"/>
  <unicode hex="0028"/>
  <outline>
    <contour>
      <point x="119" y="323" type="curve" smooth="yes"/>
      <point x="119" y="46"/>
      <point x="197" y="-48"/>
      <point x="376" y="-108" type="curve"/>
      <point x="404" y="-23" type="line"/>
      <point x="287" y="40"/>
      <point x="293" y="133"/>
      <point x="293" y="324" type="curve"/>
      <point x="293" y="517"/>
      <point x="287" y="610"/>
      <point x="404" y="671" type="curve"/>
      <point x="376" y="756" type="line"/>
      <point x="197" y="698"/>
      <point x="119" y="604"/>
    </contour>
  </outline>
</glyph>
<glyph name="comma" format="2">
  <advance width="362"/>
  <unicode hex="002C"/>
  <outline>
    <contour>
      <point x="177.569" y="-29.046" type="curve" smooth="yes"/>
      <point x="203.072" y="-29.046"/>
      <point x="243.149" y="-19.9376"/>
      <point x="246.792" y="-1.72082" type="curve"/>
      <point x="197.607" y="49.2862" type="line"/>
      <point x="142.957" y="-54.5495" type="line"/>
      <point x="77.3764" y="-222.144" type="line"/>
      <point x="172.104" y="-258.577" type="line"/>
      <point x="246.792" y="-118.308" type="line" smooth="yes"/>
      <point x="273.989" y="-67.2324"/>
      <point x="295.978" y="11.0309"/>
      <point x="295.978" y="63.8596" type="curve" smooth="yes"/>
      <point x="295.978" y="176.804"/>
      <point x="268.653" y="200.485"/>
      <point x="177.569" y="200.485" type="curve" smooth="yes"/>
      <point x="86.4848" y="200.485"/>
      <point x="59.1596" y="176.804"/>
      <point x="59.1596" y="87.5414" type="curve" smooth="yes"/>
      <point x="59.1596" y="-1.72082"/>
      <point x="86.4848" y="-29.046"/>
    </contour>
  </outline>
</glyph>
<glyph name="period" format="2">
	<advance width="306"/>
	<unicode hex="002E"/>
	<outline>
		<contour>
			<point x="151.342" y="-14" type="curve" smooth="yes"/>
			<point x="240.836" y="-14"/>
			<point x="267.684" y="12.8482"/>
			<point x="267.684" y="100.552" type="curve" smooth="yes"/>
			<point x="267.684" y="188.256"/>
			<point x="240.836" y="211.525"/>
			<point x="151.342" y="211.525" type="curve" smooth="yes"/>
			<point x="61.8482" y="211.525"/>
			<point x="35" y="188.256"/>
			<point x="35" y="100.552" type="curve" smooth="yes"/>
			<point x="35" y="12.8482"/>
			<point x="61.8482" y="-14"/>
		</contour>
	</outline>
</glyph>
<glyph name="zero" format="2">
  <advance width="654"/>
  <unicode hex="0030"/>
  <outline>
    <contour>
      <point x="329" y="-18" type="curve" smooth="yes"/>
      <point x="113" y="-18"/>
      <point x="24" y="85"/>
      <point x="24" y="370" type="curve"/>
      <point x="24" y="655"/>
      <point x="113" y="758"/>
      <point x="329" y="758" type="curve" smooth="yes"/>
      <point x="547" y="758"/>
      <point x="636" y="655"/>
      <point x="636" y="370" type="curve"/>
      <point x="636" y="85"/>
      <point x="547" y="-18"/>
    </contour>
    <contour>
      <point x="329" y="218" type="curve" smooth="yes"/>
      <point x="409" y="218"/>
      <point x="439" y="256"/>
      <point x="439" y="370" type="curve"/>
      <point x="439" y="484"/>
      <point x="409" y="522"/>
      <point x="329" y="522" type="curve" smooth="yes"/>
      <point x="250" y="522"/>
      <point x="220" y="484"/>
      <point x="220" y="370" type="curve"/>
      <point x="220" y="256"/>
      <point x="250" y="218"/>
    </contour>
  </outline>
</glyph>
<glyph name="one" format="2">
  <advance width="494"/>
  <unicode hex="0031"/>
  <outline>
    <contour>
      <point x="44" y="150.602" type="line"/>
      <point x="44" y="0" type="line"/>
      <point x="508.223" y="0" type="line"/>
      <point x="508.223" y="150.602" type="line"/>
      <point x="329.223" y="188.602" type="line"/>
      <point x="359.223" y="139.602" type="line"/>
      <point x="359.223" y="750" type="line"/>
      <point x="205" y="750" type="line"/>
      <point x="49" y="578.729" type="line"/>
      <point x="49" y="522.729" type="line"/>
      <point x="235" y="522.729" type="line"/>
      <point x="209" y="562.729" type="line"/>
      <point x="209" y="139.602" type="line"/>
      <point x="236" y="188.602" type="line"/>
    </contour>
  </outline>
</glyph>
<glyph name="two" format="2">
  <advance width="575"/>
  <unicode hex="0032"/>
  <outline>
    <contour>
      <point x="36" y="104" type="curve"/>
      <point x="36" y="0" type="line"/>
      <point x="527" y="0" type="line"/>
      <point x="519" y="264" type="line"/>
      <point x="393" y="264" type="line"/>
      <point x="383" y="164" type="line"/>
      <point x="190" y="164" type="line"/>
      <point x="257" y="314"/>
      <point x="521" y="220"/>
      <point x="521" y="483" type="curve" smooth="yes"/>
      <point x="521" y="689"/>
      <point x="450" y="756"/>
      <point x="260" y="756" type="curve" smooth="yes"/>
      <point x="178" y="756"/>
      <point x="104" y="740"/>
      <point x="39" y="707" type="curve"/>
      <point x="49" y="445" type="line"/>
      <point x="177" y="445" type="line"/>
      <point x="184" y="554" type="line"/>
      <point x="203" y="557"/>
      <point x="225" y="558"/>
      <point x="249" y="558" type="curve" smooth="yes"/>
      <point x="354" y="558"/>
      <point x="392" y="545"/>
      <point x="392" y="482" type="curve" smooth="yes"/>
      <point x="392" y="346"/>
      <point x="36" y="437"/>
    </contour>
  </outline>
</glyph>
<glyph name="three" format="2">
  <advance width="646"/>
  <unicode hex="0033"/>
  <outline>
    <contour>
      <point x="88" y="179" type="line"/>
      <point x="150" y="161"/>
      <point x="219" y="150"/>
      <point x="306" y="150" type="curve" smooth="yes"/>
      <point x="436" y="150"/>
      <point x="435.689" y="190.716"/>
      <point x="435.689" y="230.813" type="curve" smooth="yes"/>
      <point x="435.689" y="318"/>
      <point x="269.704" y="302.831"/>
      <point x="193" y="305.858" type="curve"/>
      <point x="193" y="427.757" type="line"/>
      <point x="258.505" y="427.757"/>
      <point x="412.631" y="414"/>
      <point x="412.631" y="501.214" type="curve" smooth="yes"/>
      <point x="412.631" y="590.794"/>
      <point x="382.261" y="592"/>
      <point x="300.251" y="592" type="curve" smooth="yes"/>
      <point x="234" y="592"/>
      <point x="213" y="583"/>
      <point x="168" y="570" type="curve"/>
      <point x="213" y="611" type="line"/>
      <point x="205.349" y="508" type="line"/>
      <point x="92" y="508" type="line"/>
      <point x="82" y="723" type="line"/>
      <point x="142" y="748"/>
      <point x="221" y="758"/>
      <point x="296.537" y="758" type="curve" smooth="yes"/>
      <point x="474" y="758"/>
      <point x="541.194" y="702.806"/>
      <point x="541.194" y="560.131" type="curve" smooth="yes"/>
      <point x="541.194" y="436.806"/>
      <point x="509.698" y="382.901"/>
      <point x="379" y="379" type="curve" smooth="yes"/>
      <point x="312" y="377" type="line"/>
      <point x="394" y="414" type="line"/>
      <point x="394" y="347" type="line"/>
      <point x="312" y="366" type="line"/>
      <point x="379" y="364" type="line" smooth="yes"/>
      <point x="529.078" y="359.52"/>
      <point x="577.771" y="310"/>
      <point x="577.771" y="190.716" type="curve" smooth="yes"/>
      <point x="577.771" y="39"/>
      <point x="499" y="-18"/>
      <point x="306" y="-18" type="curve" smooth="yes"/>
      <point x="219" y="-18"/>
      <point x="145" y="3"/>
      <point x="68" y="30" type="curve"/>
    </contour>
  </outline>
</glyph>
<glyph name="four" format="2">
  <advance width="652"/>
  <unicode hex="0034"/>
  <outline>
    <contour>
      <point x="375" y="600" type="line"/>
      <point x="363" y="519" type="line"/>
      <point x="363" y="139" type="line"/>
      <point x="396" y="186" type="line"/>
      <point x="194" y="156" type="line"/>
      <point x="194" y="0" type="line"/>
      <point x="611" y="0" type="line"/>
      <point x="611" y="156" type="line"/>
      <point x="508" y="183" type="line"/>
      <point x="517" y="139" type="line"/>
      <point x="517" y="600" type="line"/>
    </contour>
    <contour>
      <point x="302" y="786" type="line"/>
      <point x="41" y="356" type="line"/>
      <point x="41" y="222" type="line"/>
      <point x="438" y="222" type="line"/>
      <point x="454" y="217" type="line"/>
      <point x="602" y="230" type="line"/>
      <point x="602" y="326" type="line"/>
      <point x="458" y="339" type="line"/>
      <point x="438" y="335" type="line"/>
      <point x="206" y="335" type="line"/>
      <point x="209" y="312" type="line"/>
      <point x="209" y="399" type="line"/>
      <point x="196" y="330" type="line"/>
      <point x="378" y="626" type="line"/>
      <point x="434" y="756" type="line"/>
    </contour>
  </outline>
</glyph>
<glyph name="five" format="2">
  <advance width="628"/>
  <unicode hex="0035"/>
  <outline>
    <contour>
      <point x="231" y="374" type="line"/>
      <point x="270" y="710" type="line"/>
      <point x="151" y="558" type="line"/>
      <point x="487" y="558" type="line"/>
      <point x="386" y="714" type="line"/>
      <point x="399" y="465" type="line"/>
      <point x="539" y="465" type="line"/>
      <point x="552" y="740" type="line"/>
      <point x="141" y="740" type="line"/>
      <point x="94" y="298" type="line"/>
      <point x="297" y="303" type="line" smooth="yes"/>
      <point x="399" y="306"/>
      <point x="460" y="299"/>
      <point x="460" y="226" type="curve" smooth="yes"/>
      <point x="460" y="177"/>
      <point x="406" y="161"/>
      <point x="323" y="161" type="curve"/>
      <point x="218" y="161"/>
      <point x="183" y="174"/>
      <point x="81" y="201" type="curve"/>
      <point x="56" y="37" type="line"/>
      <point x="56" y="37"/>
      <point x="140" y="-18"/>
      <point x="318" y="-18" type="curve"/>
      <point x="493" y="-18"/>
      <point x="572" y="109"/>
      <point x="572" y="227" type="curve" smooth="yes"/>
      <point x="572" y="357"/>
      <point x="526" y="440"/>
      <point x="392" y="440" type="curve" smooth="yes"/>
      <point x="328" y="440"/>
      <point x="265" y="418"/>
      <point x="248" y="363" type="curve"/>
    </contour>
    <contour>
      <point x="195" y="361" type="line"/>
      <point x="275" y="361" type="line"/>
      <point x="303" y="389" type="line"/>
      <point x="195" y="389" type="line"/>
    </contour>
  </outline>
</glyph>
<glyph name="six" format="2">
  <advance width="500"/>
  <unicode hex="0036"/>
  <outline>
    <contour>
      <point x="78" y="286" type="line"/>
      <point x="150" y="324"/>
      <point x="249.0" y="344.0"/>
      <point x="324" y="344" type="curve"/>
      <point x="462" y="344.0"/>
      <point x="507.0" y="327.0"/>
      <point x="507" y="214" type="curve" smooth="yes"/>
      <point x="507.0" y="112.0"/>
      <point x="461" y="73.0"/>
      <point x="335" y="73" type="curve" smooth="yes"/>
      <point x="191.0" y="73.0"/>
      <point x="138.0" y="148"/>
      <point x="138" y="360" type="curve" smooth="yes"/>
      <point x="138.0" y="582"/>
      <point x="194.0" y="664.0"/>
      <point x="327" y="664" type="curve"/>
      <point x="426.0" y="664.0"/>
      <point x="485.0" y="649.0"/>
      <point x="520" y="631" type="curve"/>
      <point x="551" y="699" type="line"/>
      <point x="499.0" y="735.0"/>
      <point x="433.0" y="758.0"/>
      <point x="335" y="758" type="curve"/>
      <point x="138.0" y="758.0"/>
      <point x="56.0" y="646"/>
      <point x="56" y="352" type="curve" smooth="yes"/>
      <point x="56.0" y="80"/>
      <point x="130.0" y="-18.0"/>
      <point x="335" y="-18" type="curve" smooth="yes"/>
      <point x="513.0" y="-18.0"/>
      <point x="585.0" y="71.0"/>
      <point x="585" y="225" type="curve" smooth="yes"/>
      <point x="585.0" y="375"/>
      <point x="520.0" y="430.0"/>
      <point x="352" y="430" type="curve" smooth="yes"/>
      <point x="248.0" y="430.0"/>
      <point x="189" y="415"/>
      <point x="156" y="326" type="curve"/>
      <point x="187" y="360" type="line"/>
      <point x="124" y="360" type="line"/>
    </contour>
  </outline>
</glyph>
<glyph name="seven" format="2">
  <advance width="609"/>
  <unicode hex="0037"/>
  <outline>
    <contour>
      <point x="50" y="740" type="line"/>
      <point x="60" y="466" type="line"/>
      <point x="203" y="466" type="line"/>
      <point x="217" y="718" type="line"/>
      <point x="104" y="556" type="line"/>
      <point x="497" y="557" type="line"/>
      <point x="525" y="713" type="line"/>
      <point x="448" y="714" type="line"/>
      <point x="218" y="228" type="line"/>
      <point x="134" y="3" type="line"/>
      <point x="257" y="-23" type="line"/>
      <point x="555" y="606" type="line"/>
      <point x="555" y="740" type="line"/>
    </contour>
  </outline>
</glyph>
<glyph name="eight" format="2">
  <advance width="708"/>
  <unicode hex="0038"/>
  <outline>
    <contour>
      <point x="352" y="317" type="curve" smooth="yes"/>
      <point x="241" y="317"/>
      <point x="212" y="286"/>
      <point x="212" y="226" type="curve" smooth="yes"/>
      <point x="212" y="154"/>
      <point x="237" y="128"/>
      <point x="352" y="128" type="curve" smooth="yes"/>
      <point x="457" y="128"/>
      <point x="492" y="154"/>
      <point x="492" y="226" type="curve" smooth="yes"/>
      <point x="492" y="286"/>
      <point x="453" y="317"/>
    </contour>
    <contour>
      <point x="352" y="577" type="curve" smooth="yes"/>
      <point x="255" y="577"/>
      <point x="229" y="559"/>
      <point x="229" y="514" type="curve" smooth="yes"/>
      <point x="229" y="455"/>
      <point x="259" y="436"/>
      <point x="352" y="436" type="curve" smooth="yes"/>
      <point x="445" y="436"/>
      <point x="475" y="455"/>
      <point x="475" y="514" type="curve" smooth="yes"/>
      <point x="475" y="562"/>
      <point x="449" y="577"/>
    </contour>
    <contour>
      <point x="352" y="-18" type="curve" smooth="yes"/>
      <point x="146" y="-18"/>
      <point x="63" y="45"/>
      <point x="63" y="203" type="curve" smooth="yes"/>
      <point x="63" y="316"/>
      <point x="111" y="365"/>
      <point x="234" y="374" type="curve" smooth="yes"/>
      <point x="301" y="379" type="line"/>
      <point x="231" y="360" type="line"/>
      <point x="231" y="444" type="line"/>
      <point x="301" y="390" type="line"/>
      <point x="234" y="395" type="line" smooth="yes"/>
      <point x="132" y="403"/>
      <point x="93" y="452"/>
      <point x="93" y="571" type="curve" smooth="yes"/>
      <point x="93" y="700"/>
      <point x="167" y="750"/>
      <point x="352" y="750" type="curve" smooth="yes"/>
      <point x="537" y="750"/>
      <point x="611" y="700"/>
      <point x="611" y="571" type="curve" smooth="yes"/>
      <point x="611" y="452"/>
      <point x="572" y="403"/>
      <point x="470" y="395" type="curve" smooth="yes"/>
      <point x="403" y="390" type="line"/>
      <point x="473" y="444" type="line"/>
      <point x="473" y="360" type="line"/>
      <point x="403" y="379" type="line"/>
      <point x="470" y="374" type="line" smooth="yes"/>
      <point x="593" y="365"/>
      <point x="641" y="316"/>
      <point x="641" y="203" type="curve" smooth="yes"/>
      <point x="641" y="45"/>
      <point x="558" y="-18"/>
    </contour>
  </outline>
</glyph>
<glyph name="nine" format="2">
  <advance width="676"/>
  <unicode hex="0039"/>
  <outline>
    <contour>
      <point x="536" y="434" type="line"/>
      <point x="464" y="396"/>
      <point x="401" y="377"/>
      <point x="316" y="377" type="curve" smooth="yes"/>
      <point x="248" y="377"/>
      <point x="207" y="408"/>
      <point x="207" y="474" type="curve" smooth="yes"/>
      <point x="207" y="537"/>
      <point x="264" y="566"/>
      <point x="330" y="566" type="curve" smooth="yes"/>
      <point x="467" y="566"/>
      <point x="477" y="508"/>
      <point x="477" y="371" type="curve" smooth="yes"/>
      <point x="477" y="198"/>
      <point x="482" y="151"/>
      <point x="310" y="151" type="curve" smooth="yes"/>
      <point x="210" y="151"/>
      <point x="158" y="158"/>
      <point x="107" y="177" type="curve"/>
      <point x="77" y="41" type="line"/>
      <point x="137" y="1"/>
      <point x="212" y="-18"/>
      <point x="319" y="-18" type="curve" smooth="yes"/>
      <point x="516" y="-18"/>
      <point x="598" y="85"/>
      <point x="598" y="358" type="curve" smooth="yes"/>
      <point x="598" y="677"/>
      <point x="551" y="758"/>
      <point x="329" y="758" type="curve" smooth="yes"/>
      <point x="151" y="758"/>
      <point x="69" y="678"/>
      <point x="69" y="514" type="curve" smooth="yes"/>
      <point x="69" y="345"/>
      <point x="130" y="270"/>
      <point x="306" y="270" type="curve" smooth="yes"/>
      <point x="422" y="270"/>
      <point x="425" y="285"/>
      <point x="458" y="374" type="curve"/>
      <point x="427" y="340" type="line"/>
      <point x="490" y="340" type="line"/>
    </contour>
  </outline>
</glyph>
<glyph name="colon" format="2">
  <advance width="310"/>
  <unicode hex="003A"/>
  <outline>
    <contour>
      <point x="151.342" y="-14" type="curve" smooth="yes"/>
      <point x="240.836" y="-14"/>
      <point x="267.684" y="12.8482"/>
      <point x="267.684" y="100.552" type="curve" smooth="yes"/>
      <point x="267.684" y="188.257"/>
      <point x="240.836" y="211.525"/>
      <point x="151.342" y="211.525" type="curve" smooth="yes"/>
      <point x="61.8482" y="211.525"/>
      <point x="35" y="188.257"/>
      <point x="35" y="100.552" type="curve" smooth="yes"/>
      <point x="35" y="12.8482"/>
      <point x="61.8482" y="-14"/>
    </contour>
    <contour>
      <point x="151.342" y="336.008" type="curve" smooth="yes"/>
      <point x="240.836" y="336.008"/>
      <point x="267.684" y="362.856"/>
      <point x="267.684" y="450.561" type="curve" smooth="yes"/>
      <point x="267.684" y="538.265"/>
      <point x="240.836" y="561.533"/>
      <point x="151.342" y="561.533" type="curve" smooth="yes"/>
      <point x="61.8482" y="561.533"/>
      <point x="35" y="538.265"/>
      <point x="35" y="450.561" type="curve" smooth="yes"/>
      <point x="35" y="362.856"/>
      <point x="61.8482" y="336.008"/>
    </contour>
  </outline>
  <guideline angle="90" x="-325" y="0"/>
</glyph>
<glyph name="semicolon" format="2">
	<advance width="316"/>
	<unicode hex="003B"/>
	<guideline x="36" y="0" angle="0"/>
	<outline>
		<contour>
			<point x="151.342" y="336.008" type="curve" smooth="yes"/>
			<point x="240.836" y="336.008"/>
			<point x="267.684" y="362.856"/>
			<point x="267.684" y="450.561" type="curve" smooth="yes"/>
			<point x="267.684" y="538.265"/>
			<point x="240.836" y="561.533"/>
			<point x="151.342" y="561.533" type="curve" smooth="yes"/>
			<point x="61.8482" y="561.533"/>
			<point x="35" y="538.265"/>
			<point x="35" y="450.561" type="curve" smooth="yes"/>
			<point x="35" y="362.856"/>
			<point x="61.8482" y="336.008"/>
		</contour>
		<contour>
			<point x="154.569" y="-29.046" type="curve" smooth="yes"/>
			<point x="180.072" y="-29.046"/>
			<point x="220.149" y="-19.9376"/>
			<point x="223.792" y="-1.72082" type="curve"/>
			<point x="174.607" y="49.2862" type="line"/>
			<point x="119.957" y="-54.5495" type="line"/>
			<point x="54.3764" y="-222.144" type="line"/>
			<point x="149.104" y="-258.577" type="line"/>
			<point x="223.792" y="-118.308" type="line" smooth="yes"/>
			<point x="250.989" y="-67.2324"/>
			<point x="272.978" y="11.0309"/>
			<point x="272.978" y="63.8596" type="curve" smooth="yes"/>
			<point x="272.978" y="176.804"/>
			<point x="245.653" y="200.485"/>
			<point x="154.569" y="200.485" type="curve" smooth="yes"/>
			<point x="63.4848" y="200.485"/>
			<point x="36.1596" y="176.804"/>
			<point x="36.1596" y="87.5414" type="curve" smooth="yes"/>
			<point x="36.1596" y="-1.72082"/>
			<point x="63.4848" y="-29.046"/>
		</contour>
	</outline>
</glyph>
<glyph name="question" format="2">
  <advance width="509"/>
  <unicode hex="003F"/>
  <outline>
    <contour>
      <point x="210" y="327" type="line"/>
      <point x="255" y="327" type="line" smooth="yes"/>
      <point x="422" y="327"/>
      <point x="492.0" y="407"/>
      <point x="492" y="538" type="curve" smooth="yes"/>
      <point x="492" y="690"/>
      <point x="419.0" y="760.0"/>
      <point x="260" y="760" type="curve" smooth="yes"/>
      <point x="163.0" y="760.0"/>
      <point x="94" y="743"/>
      <point x="37" y="713" type="curve"/>
      <point x="45" y="507" type="line"/>
      <point x="171" y="507" type="line"/>
      <point x="187" y="669" type="line"/>
      <point x="92" y="566" type="line"/>
      <point x="146.0" y="586.0"/>
      <point x="190" y="594"/>
      <point x="251" y="594" type="curve" smooth="yes"/>
      <point x="314" y="594.0"/>
      <point x="338" y="582"/>
      <point x="338" y="531" type="curve" smooth="yes"/>
      <point x="338.0" y="486"/>
      <point x="310" y="465"/>
      <point x="214" y="466" type="curve" smooth="yes"/>
      <point x="108" y="467" type="line"/>
      <point x="128" y="284" type="line"/>
      <point x="260" y="284" type="line"/>
      <point x="276" y="395" type="line"/>
    </contour>
    <contour>
      <point x="192" y="244" type="curve" smooth="yes"/>
      <point x="90" y="244"/>
      <point x="53" y="211"/>
      <point x="53" y="116" type="curve" smooth="yes"/>
      <point x="53" y="15"/>
      <point x="90" y="-10"/>
      <point x="192" y="-10" type="curve" smooth="yes"/>
      <point x="291" y="-10"/>
      <point x="328" y="15"/>
      <point x="328" y="116" type="curve" smooth="yes"/>
      <point x="328" y="211"/>
      <point x="291" y="244"/>
    </contour>
  </outline>
</glyph>
<glyph name="A" format="2">
  <advance width="852"/>
  <unicode hex="0041"/>
  <guideline x="0" y="289" angle="0" identifier="wNwt7PKC1l"/>
  <outline>
    <contour>
      <point x="462" y="557" type="line"/>
      <point x="591" y="97" type="line"/>
      <point x="613" y="206" type="line"/>
      <point x="508" y="153" type="line"/>
      <point x="508" y="0" type="line"/>
      <point x="822" y="0" type="line"/>
      <point x="822" y="152" type="line"/>
      <point x="721" y="189" type="line"/>
      <point x="750" y="140" type="line"/>
      <point x="586" y="740" type="line"/>
      <point x="124" y="740" type="line"/>
      <point x="124" y="588" type="line"/>
      <point x="242" y="557" type="line"/>
      <point x="107" y="97" type="line"/>
      <point x="180" y="200" type="line"/>
      <point x="30" y="152" type="line"/>
      <point x="30" y="0" type="line"/>
      <point x="368" y="0" type="line"/>
      <point x="368" y="152" type="line"/>
      <point x="293" y="198" type="line"/>
      <point x="290" y="98" type="line"/>
      <point x="413" y="557" type="line"/>
    </contour>
    <contour>
      <point x="245" y="248" type="line"/>
      <point x="635" y="248" type="line"/>
      <point x="635" y="394" type="line"/>
      <point x="245" y="394" type="line"/>
    </contour>
  </outline>
</glyph>
<glyph name="B" format="2">
  <advance width="737"/>
  <unicode hex="0042"/>
  <outline>
    <contour>
      <point x="259" y="740" type="line"/>
      <point x="391" y="740" type="line" smooth="yes"/>
      <point x="556" y="740"/>
      <point x="676" y="693"/>
      <point x="676" y="543" type="curve" smooth="yes"/>
      <point x="676" y="411"/>
      <point x="509.0" y="332.0"/>
      <point x="381" y="332" type="curve" smooth="yes"/>
      <point x="259" y="332" type="line"/>
      <point x="259" y="422" type="line"/>
      <point x="381" y="422" type="line" smooth="yes"/>
      <point x="466.0" y="422.0"/>
      <point x="515" y="441"/>
      <point x="515" y="493" type="curve" smooth="yes"/>
      <point x="515" y="550"/>
      <point x="466.0" y="557.0"/>
      <point x="381" y="557" type="curve" smooth="yes"/>
      <point x="259" y="557" type="line"/>
    </contour>
    <contour>
      <point x="264" y="0" type="line"/>
      <point x="30" y="0" type="line"/>
      <point x="30" y="152" type="line"/>
      <point x="142" y="196" type="line"/>
      <point x="114" y="154" type="line"/>
      <point x="114" y="587" type="line"/>
      <point x="142" y="545" type="line"/>
      <point x="30" y="588" type="line"/>
      <point x="30" y="740" type="line"/>
      <point x="264" y="740" type="line"/>
    </contour>
    <contour>
      <point x="259" y="402" type="line"/>
      <point x="453" y="402" type="line" smooth="yes"/>
      <point x="601" y="402"/>
      <point x="707" y="333"/>
      <point x="707" y="208" type="curve" smooth="yes"/>
      <point x="707" y="52"/>
      <point x="582" y="0"/>
      <point x="401" y="0" type="curve" smooth="yes"/>
      <point x="259" y="0" type="line"/>
      <point x="259" y="184" type="line"/>
      <point x="381" y="184" type="line" smooth="yes"/>
      <point x="499.0" y="184.0"/>
      <point x="526" y="204"/>
      <point x="526" y="254" type="curve"/>
      <point x="526" y="299"/>
      <point x="489.0" y="322.0"/>
      <point x="381" y="322" type="curve" smooth="yes"/>
      <point x="259" y="322" type="line"/>
    </contour>
  </outline>
</glyph>
<glyph name="C" format="2">
  <advance width="683"/>
  <unicode hex="0043"/>
  <outline>
    <contour>
      <point x="675" y="108" type="line"/>
      <point x="614" y="39"/>
      <point x="493" y="-18"/>
      <point x="365" y="-18" type="curve" smooth="yes"/>
      <point x="140" y="-18"/>
      <point x="34" y="98"/>
      <point x="34" y="369" type="curve" smooth="yes"/>
      <point x="34" y="642"/>
      <point x="125" y="760"/>
      <point x="385" y="760" type="curve" smooth="yes"/>
      <point x="491" y="760"/>
      <point x="567" y="743"/>
      <point x="653" y="691" type="curve"/>
      <point x="628" y="445" type="line"/>
      <point x="488" y="445" type="line"/>
      <point x="451" y="658" type="line"/>
      <point x="563" y="519" type="line"/>
      <point x="508" y="565"/>
      <point x="459" y="577"/>
      <point x="374" y="577" type="curve" smooth="yes"/>
      <point x="233" y="577"/>
      <point x="185" y="527"/>
      <point x="185" y="369" type="curve"/>
      <point x="185" y="213"/>
      <point x="232" y="166"/>
      <point x="370" y="166" type="curve" smooth="yes"/>
      <point x="468" y="166"/>
      <point x="515" y="188"/>
      <point x="576" y="239" type="curve"/>
    </contour>
  </outline>
</glyph>
<glyph name="D" format="2">
	<advance width="756"/>
	<unicode hex="0044"/>
	<outline>
		<contour>
			<point x="348" y="0" type="line" smooth="yes"/>
			<point x="614" y="1"/>
			<point x="724" y="83"/>
			<point x="724" y="370" type="curve" smooth="yes"/>
			<point x="724" y="658"/>
			<point x="614" y="740"/>
			<point x="348" y="740" type="curve" smooth="yes"/>
			<point x="37" y="740" type="line"/>
			<point x="37" y="584" type="line"/>
			<point x="186" y="522" type="line"/>
			<point x="123" y="591" type="line"/>
			<point x="123" y="123" type="line"/>
			<point x="165" y="206" type="line"/>
			<point x="37" y="156" type="line"/>
			<point x="37" y="-1" type="line"/>
		</contour>
		<contour>
			<point x="387" y="557" type="line" smooth="yes"/>
			<point x="504" y="557"/>
			<point x="557" y="532"/>
			<point x="557" y="374" type="curve" smooth="yes"/>
			<point x="557" y="215"/>
			<point x="504" y="181"/>
			<point x="387" y="182" type="curve" smooth="yes"/>
			<point x="247" y="183" type="line"/>
			<point x="287" y="154" type="line"/>
			<point x="287" y="600" type="line"/>
			<point x="258" y="557" type="line"/>
		</contour>
	</outline>
</glyph>
<glyph name="E" format="2">
	<advance width="669"/>
	<unicode hex="0045"/>
	<outline>
		<contour>
			<point x="213" y="309" type="line"/>
			<point x="213" y="427" type="line"/>
			<point x="467" y="411" type="line"/>
			<point x="467" y="325" type="line"/>
		</contour>
		<contour>
			<point x="479" y="116" type="line"/>
			<point x="497" y="276" type="line"/>
			<point x="620" y="276" type="line"/>
			<point x="636" y="-1" type="line"/>
			<point x="26" y="-1" type="line"/>
			<point x="26" y="156" type="line"/>
			<point x="158" y="211" type="line"/>
			<point x="109" y="77" type="line"/>
			<point x="109" y="601" type="line"/>
			<point x="143" y="534" type="line"/>
			<point x="26" y="584" type="line"/>
			<point x="26" y="740" type="line"/>
			<point x="622" y="740" type="line"/>
			<point x="614" y="463" type="line"/>
			<point x="491" y="463" type="line"/>
			<point x="474" y="598" type="line"/>
			<point x="537" y="557" type="line"/>
			<point x="235" y="557" type="line"/>
			<point x="273" y="603" type="line"/>
			<point x="273" y="80" type="line"/>
			<point x="247" y="182" type="line"/>
			<point x="549" y="182" type="line"/>
		</contour>
	</outline>
</glyph>
<glyph name="F" format="2">
  <advance width="639"/>
  <unicode hex="0046"/>
  <outline>
    <contour>
      <point x="203" y="314" type="line"/>
      <point x="203" y="433" type="line"/>
      <point x="484" y="412" type="line"/>
      <point x="484" y="327" type="line"/>
    </contour>
    <contour>
      <point x="393" y="0" type="line"/>
      <point x="25" y="0" type="line"/>
      <point x="25" y="152" type="line"/>
      <point x="137.895" y="200.673" type="line"/>
      <point x="99" y="142" type="line"/>
      <point x="99" y="603" type="line"/>
      <point x="129" y="573" type="line"/>
      <point x="25" y="573" type="line"/>
      <point x="25" y="740" type="line"/>
      <point x="610" y="740" type="line"/>
      <point x="602" y="458" type="line"/>
      <point x="522" y="458" type="line"/>
      <point x="491" y="611" type="line"/>
      <point x="533" y="579" type="line"/>
      <point x="225" y="579" type="line"/>
      <point x="256" y="616" type="line"/>
      <point x="256" y="132" type="line"/>
      <point x="215.249" y="191.704" type="line"/>
      <point x="393" y="152" type="line"/>
    </contour>
  </outline>
</glyph>
<glyph name="G" format="2">
  <advance width="711"/>
  <unicode hex="0047"/>
  <outline>
    <contour>
      <point x="523" y="109" type="line"/>
      <point x="523" y="324" type="line"/>
      <point x="559" y="251" type="line"/>
      <point x="374" y="270" type="line"/>
      <point x="374" y="378" type="line"/>
      <point x="673" y="388" type="line"/>
      <point x="673" y="108" type="line"/>
      <point x="608" y="38"/>
      <point x="506" y="-18"/>
      <point x="370" y="-18" type="curve" smooth="yes"/>
      <point x="133" y="-18"/>
      <point x="35" y="91"/>
      <point x="35" y="375" type="curve"/>
      <point x="35" y="652"/>
      <point x="133" y="760"/>
      <point x="393" y="760" type="curve"/>
      <point x="495" y="760"/>
      <point x="587" y="738"/>
      <point x="666" y="689" type="curve"/>
      <point x="640" y="445" type="line"/>
      <point x="510" y="445" type="line"/>
      <point x="471" y="658" type="line"/>
      <point x="578" y="516" type="line"/>
      <point x="525" y="557"/>
      <point x="494" y="577"/>
      <point x="380" y="577" type="curve"/>
      <point x="224" y="577"/>
      <point x="186" y="529"/>
      <point x="186" y="375" type="curve"/>
      <point x="186" y="214"/>
      <point x="242" y="166"/>
      <point x="373.212" y="166" type="curve" smooth="yes"/>
      <point x="460" y="166"/>
      <point x="512" y="187"/>
      <point x="557" y="225" type="curve"/>
    </contour>
  </outline>
</glyph>
<glyph name="H" format="2">
  <advance width="871"/>
  <unicode hex="0048"/>
  <outline>
    <contour>
      <point x="289" y="610" type="line"/>
      <point x="289" y="81" type="line"/>
      <point x="232" y="207" type="line"/>
      <point x="392" y="152" type="line"/>
      <point x="392" y="0" type="line"/>
      <point x="45" y="0" type="line"/>
      <point x="45" y="152" type="line"/>
      <point x="168" y="198" type="line"/>
      <point x="139" y="89" type="line"/>
      <point x="139" y="602" type="line"/>
      <point x="183" y="540" type="line"/>
      <point x="45" y="588" type="line"/>
      <point x="45" y="740" type="line"/>
      <point x="392" y="740" type="line"/>
      <point x="392" y="588" type="line"/>
      <point x="259" y="545" type="line"/>
    </contour>
    <contour>
      <point x="725" y="627" type="line"/>
      <point x="725" y="141" type="line"/>
      <point x="676" y="207" type="line"/>
      <point x="819" y="152" type="line"/>
      <point x="819" y="0" type="line"/>
      <point x="472" y="0" type="line"/>
      <point x="472" y="152" type="line"/>
      <point x="600" y="196" type="line"/>
      <point x="575" y="153" type="line"/>
      <point x="575" y="620" type="line"/>
      <point x="610" y="545" type="line"/>
      <point x="472" y="588" type="line"/>
      <point x="472" y="740" type="line"/>
      <point x="819" y="740" type="line"/>
      <point x="819" y="589" type="line"/>
      <point x="681" y="538" type="line"/>
    </contour>
    <contour>
      <point x="230" y="325" type="line"/>
      <point x="230" y="431" type="line"/>
      <point x="620" y="431" type="line"/>
      <point x="620" y="325" type="line"/>
    </contour>
  </outline>
</glyph>
<glyph name="I" format="2">
  <advance width="435"/>
  <unicode hex="0049"/>
  <outline>
    <contour>
      <point x="296" y="100" type="line"/>
      <point x="245" y="198" type="line"/>
      <point x="400" y="152" type="line"/>
      <point x="400" y="0" type="line"/>
      <point x="42" y="0" type="line"/>
      <point x="42" y="152" type="line"/>
      <point x="191" y="195" type="line"/>
      <point x="146" y="112" type="line"/>
      <point x="146" y="620" type="line"/>
      <point x="195" y="545" type="line"/>
      <point x="42" y="588" type="line"/>
      <point x="42" y="740" type="line"/>
      <point x="400" y="740" type="line"/>
      <point x="400" y="588" type="line"/>
      <point x="274" y="551" type="line"/>
      <point x="296" y="606" type="line"/>
    </contour>
  </outline>
</glyph>
<glyph name="J" format="2">
	<advance width="699"/>
	<unicode hex="004A"/>
	<outline>
		<contour>
			<point x="142" y="199" type="curve"/>
			<point x="76" y="67" type="line"/>
			<point x="134" y="29"/>
			<point x="208" y="-18"/>
			<point x="301" y="-18" type="curve"/>
			<point x="471" y="-18"/>
			<point x="553" y="76"/>
			<point x="553" y="283" type="curve"/>
			<point x="553" y="693" type="line"/>
			<point x="510" y="548" type="line"/>
			<point x="664" y="594" type="line"/>
			<point x="664" y="740" type="line"/>
			<point x="220" y="740" type="line"/>
			<point x="220" y="584" type="line"/>
			<point x="474" y="532" type="line"/>
			<point x="389" y="686" type="line"/>
			<point x="389" y="324" type="line"/>
			<point x="389" y="215"/>
			<point x="360" y="166"/>
			<point x="278" y="166" type="curve"/>
			<point x="231" y="166"/>
			<point x="182" y="184"/>
		</contour>
	</outline>
</glyph>
<glyph name="K" format="2">
  <advance width="823"/>
  <unicode hex="004B"/>
  <outline>
    <contour>
      <point x="447" y="307" type="line"/>
      <point x="236" y="307" type="line"/>
      <point x="236" y="431" type="line"/>
      <point x="447" y="431" type="line"/>
    </contour>
    <contour>
      <point x="48" y="0" type="line"/>
      <point x="48" y="152" type="line"/>
      <point x="152" y="191" type="line"/>
      <point x="129" y="150" type="line"/>
      <point x="129" y="590" type="line"/>
      <point x="152" y="550" type="line"/>
      <point x="48" y="588" type="line"/>
      <point x="48" y="740" type="line"/>
      <point x="363" y="740" type="line"/>
      <point x="363" y="588" type="line"/>
      <point x="240.271" y="544" type="line"/>
      <point x="279" y="590" type="line"/>
      <point x="279" y="150" type="line"/>
      <point x="246.998" y="195.673" type="line"/>
      <point x="363" y="152" type="line"/>
      <point x="363" y="0" type="line"/>
    </contour>
    <contour>
      <point x="527.567" y="152" type="line"/>
      <point x="341" y="340" type="line"/>
      <point x="320" y="346" type="line"/>
      <point x="525.325" y="598.655" type="line"/>
      <point x="547.747" y="544" type="line"/>
      <point x="431" y="589" type="line"/>
      <point x="431" y="740" type="line"/>
      <point x="763" y="740" type="line"/>
      <point x="763" y="588.987" type="line"/>
      <point x="638" y="540" type="line"/>
      <point x="708" y="588" type="line"/>
      <point x="457" y="298" type="line"/>
      <point x="492" y="397" type="line"/>
      <point x="725" y="152" type="line"/>
      <point x="652.007" y="205.399" type="line"/>
      <point x="784" y="156" type="line"/>
      <point x="784" y="0" type="line"/>
      <point x="431" y="0" type="line"/>
      <point x="431" y="154" type="line"/>
      <point x="539.899" y="195.673" type="line"/>
    </contour>
  </outline>
</glyph>
<glyph name="L" format="2">
	<advance width="658"/>
	<unicode hex="004C"/>
	<guideline y="674"/>
	<outline>
		<contour>
			<point x="246" y="183" type="line"/>
			<point x="547" y="183" type="line"/>
			<point x="437" y="38" type="line"/>
			<point x="479" y="319" type="line"/>
			<point x="618" y="319" type="line"/>
			<point x="636" y="0" type="line"/>
			<point x="39" y="0" type="line"/>
			<point x="39" y="156" type="line"/>
			<point x="181" y="211" type="line"/>
			<point x="129" y="85" type="line"/>
			<point x="129" y="624" type="line"/>
			<point x="198" y="519" type="line"/>
			<point x="39" y="584" type="line"/>
			<point x="39" y="740" type="line"/>
			<point x="428" y="740" type="line"/>
			<point x="428" y="584" type="line"/>
			<point x="248" y="543" type="line"/>
			<point x="293" y="674" type="line"/>
			<point x="293" y="98" type="line"/>
		</contour>
	</outline>
</glyph>
<glyph name="M" format="2">
  <advance width="1047"/>
  <unicode hex="004D"/>
  <outline>
    <contour>
      <point x="800" y="600" type="line"/>
      <point x="786" y="600" type="line"/>
      <point x="786" y="154" type="line"/>
      <point x="813" y="196" type="line"/>
      <point x="715" y="152" type="line"/>
      <point x="715" y="0" type="line"/>
      <point x="1010" y="0" type="line"/>
      <point x="1010" y="152" type="line"/>
      <point x="908" y="196" type="line"/>
      <point x="936" y="154" type="line"/>
      <point x="936" y="589" type="line"/>
      <point x="908" y="548" type="line"/>
      <point x="1010" y="588" type="line"/>
      <point x="1010" y="740" type="line"/>
      <point x="686" y="740" type="line"/>
      <point x="467" y="22" type="line"/>
      <point x="598" y="22" type="line"/>
      <point x="383" y="740" type="line"/>
      <point x="44" y="740" type="line"/>
      <point x="44" y="588" type="line"/>
      <point x="146" y="545" type="line"/>
      <point x="123" y="587" type="line"/>
      <point x="123" y="154" type="line"/>
      <point x="146" y="196" type="line"/>
      <point x="44" y="152" type="line"/>
      <point x="44" y="0" type="line"/>
      <point x="339" y="0" type="line"/>
      <point x="339" y="152" type="line"/>
      <point x="241" y="196" type="line"/>
      <point x="263" y="154" type="line"/>
      <point x="263" y="600" type="line"/>
      <point x="254" y="600" type="line"/>
      <point x="458" y="0.5" type="line"/>
      <point x="599" y="0.5" type="line"/>
    </contour>
  </outline>
</glyph>
<glyph name="N" format="2">
	<advance width="892"/>
	<unicode hex="004E"/>
	<outline>
		<contour>
			<point x="537" y="0" type="line"/>
			<point x="229" y="639" type="line"/>
			<point x="264" y="639" type="line"/>
			<point x="264" y="144" type="line"/>
			<point x="213" y="206" type="line"/>
			<point x="365" y="151" type="line"/>
			<point x="365" y="0" type="line"/>
			<point x="40" y="0" type="line"/>
			<point x="40" y="151" type="line"/>
			<point x="162" y="206" type="line"/>
			<point x="114" y="152" type="line"/>
			<point x="114" y="666" type="line"/>
			<point x="169" y="535" type="line"/>
			<point x="40" y="589" type="line"/>
			<point x="40" y="740" type="line"/>
			<point x="372" y="740" type="line"/>
			<point x="658" y="129" type="line"/>
			<point x="628" y="124" type="line"/>
			<point x="628" y="621" type="line"/>
			<point x="695" y="531" type="line"/>
			<point x="525" y="589" type="line"/>
			<point x="525" y="740" type="line"/>
			<point x="852" y="740" type="line"/>
			<point x="852" y="589" type="line"/>
			<point x="729" y="535" type="line"/>
			<point x="778" y="628" type="line"/>
			<point x="778" y="0" type="line"/>
		</contour>
	</outline>
</glyph>
<glyph name="O" format="2">
  <advance width="696"/>
  <unicode hex="004F"/>
  <outline>
    <contour>
      <point x="335" y="-18" type="curve" smooth="yes"/>
      <point x="114" y="-18"/>
      <point x="14" y="105"/>
      <point x="14" y="375" type="curve" smooth="yes"/>
      <point x="14" y="650"/>
      <point x="118" y="759"/>
      <point x="345" y="759" type="curve" smooth="yes"/>
      <point x="567" y="759"/>
      <point x="667" y="634"/>
      <point x="667" y="364" type="curve" smooth="yes"/>
      <point x="667" y="89"/>
      <point x="563" y="-18"/>
    </contour>
    <contour>
      <point x="345" y="573.991" type="curve" smooth="yes"/>
      <point x="201.485" y="573.991"/>
      <point x="178.383" y="526.097"/>
      <point x="178.383" y="364" type="curve" smooth="yes"/>
      <point x="178.383" y="230.942"/>
      <point x="214.608" y="168.161"/>
      <point x="332.899" y="168.161" type="curve" smooth="yes"/>
      <point x="493.179" y="168.161"/>
      <point x="503.137" y="242.279"/>
      <point x="503.137" y="363.226" type="curve" smooth="yes"/>
      <point x="503.137" y="540.054"/>
      <point x="459.553" y="573.991"/>
    </contour>
  </outline>
</glyph>
<glyph name="P" format="2">
  <advance width="698"/>
  <unicode hex="0050"/>
  <outline>
    <contour>
      <point x="336" y="557" type="curve" smooth="yes"/>
      <point x="255" y="557" type="line"/>
      <point x="275" y="627" type="line"/>
      <point x="275" y="155" type="line"/>
      <point x="234" y="195" type="line"/>
      <point x="386" y="152" type="line"/>
      <point x="386" y="0" type="line"/>
      <point x="31" y="0" type="line"/>
      <point x="31" y="152" type="line"/>
      <point x="167" y="202" type="line"/>
      <point x="125" y="163" type="line"/>
      <point x="125" y="624" type="line"/>
      <point x="206" y="518" type="line"/>
      <point x="31" y="588" type="line"/>
      <point x="31" y="740" type="line"/>
      <point x="364" y="740" type="line" smooth="yes"/>
      <point x="578" y="740"/>
      <point x="662" y="669"/>
      <point x="662" y="481.162" type="curve" smooth="yes"/>
      <point x="662" y="299"/>
      <point x="583" y="249"/>
      <point x="336" y="249" type="curve" smooth="yes"/>
      <point x="251" y="249" type="line"/>
      <point x="251" y="349" type="line"/>
      <point x="336" y="349" type="line" smooth="yes"/>
      <point x="469" y="349"/>
      <point x="508" y="375"/>
      <point x="508" y="460" type="curve"/>
      <point x="508" y="536"/>
      <point x="466" y="557"/>
    </contour>
  </outline>
</glyph>
<glyph name="Q" format="2">
	<advance width="751"/>
	<unicode hex="0051"/>
	<outline>
		<contour>
			<point x="319" y="8" type="line"/>
			<point x="425" y="8" type="line"/>
			<point x="425" y="-21" type="line" smooth="yes"/>
			<point x="425" y="-53"/>
			<point x="456" y="-61"/>
			<point x="515" y="-61" type="curve" smooth="yes"/>
			<point x="554" y="-61"/>
			<point x="625" y="-43"/>
			<point x="669" y="-32" type="curve"/>
			<point x="703" y="-174" type="line"/>
			<point x="628" y="-199"/>
			<point x="555" y="-212"/>
			<point x="502" y="-212" type="curve" smooth="yes"/>
			<point x="400" y="-212"/>
			<point x="319" y="-163"/>
			<point x="319" y="-39" type="curve" smooth="yes"/>
		</contour>
		<component base="O" yOffset="-1"/>
	</outline>
</glyph>
<glyph name="R" format="2">
	<advance width="728"/>
	<unicode hex="0052"/>
	<outline>
		<contour>
			<point x="511" y="75" type="line"/>
			<point x="385" y="335" type="line"/>
			<point x="548" y="338" type="line"/>
			<point x="684" y="74" type="line"/>
			<point x="580" y="203" type="line"/>
			<point x="712" y="156" type="line"/>
			<point x="712" y="0" type="line"/>
			<point x="418" y="0" type="line"/>
			<point x="418" y="155" type="line"/>
			<point x="518" y="189" type="line"/>
		</contour>
		<contour>
			<point x="363" y="557" type="curve" smooth="yes"/>
			<point x="252" y="557" type="line"/>
			<point x="279" y="627" type="line"/>
			<point x="279" y="155" type="line"/>
			<point x="231" y="206" type="line"/>
			<point x="339" y="148" type="line"/>
			<point x="339" y="0" type="line"/>
			<point x="36" y="0" type="line"/>
			<point x="36" y="156" type="line"/>
			<point x="164" y="212" type="line"/>
			<point x="115" y="163" type="line"/>
			<point x="115" y="624" type="line"/>
			<point x="203" y="516" type="line"/>
			<point x="36" y="584" type="line"/>
			<point x="36" y="740" type="line"/>
			<point x="371" y="740" type="line" smooth="yes"/>
			<point x="585" y="740"/>
			<point x="669" y="685"/>
			<point x="669" y="497" type="curve" smooth="yes"/>
			<point x="669" y="335"/>
			<point x="590" y="279"/>
			<point x="343" y="279" type="curve" smooth="yes"/>
			<point x="248" y="279" type="line"/>
			<point x="248" y="385" type="line"/>
			<point x="363" y="385" type="line" smooth="yes"/>
			<point x="460" y="385"/>
			<point x="502" y="391"/>
			<point x="502" y="473" type="curve" smooth="yes"/>
			<point x="502" y="551"/>
			<point x="460" y="557"/>
		</contour>
	</outline>
</glyph>
<glyph name="S" format="2">
  <advance width="635"/>
  <unicode hex="0053"/>
  <outline>
    <contour>
      <point x="571.697" y="477.844" type="line"/>
      <point x="578.864" y="684.523" type="line"/>
      <point x="527.738" y="732.305"/>
      <point x="415" y="758.699"/>
      <point x="299.821" y="758.699" type="curve" smooth="yes"/>
      <point x="114" y="758.699"/>
      <point x="24.9612" y="680.518"/>
      <point x="24.9612" y="515.668" type="curve" smooth="yes"/>
      <point x="24.9612" y="208"/>
      <point x="435.146" y="346"/>
      <point x="435.146" y="219.488" type="curve" smooth="yes"/>
      <point x="435.146" y="101.585"/>
      <point x="106.911" y="166.778"/>
      <point x="56.9202" y="220.852" type="curve"/>
      <point x="161.18" y="68.3857" type="line"/>
      <point x="121.972" y="260.058" type="line"/>
      <point x="28.5666" y="260.058" type="line"/>
      <point x="21.9549" y="61" type="line"/>
      <point x="79.515" y="6.55126"/>
      <point x="231.775" y="-18"/>
      <point x="337.733" y="-18" type="curve" smooth="yes"/>
      <point x="522.786" y="-18"/>
      <point x="608" y="55"/>
      <point x="608" y="208" type="curve"/>
      <point x="608" y="515.765"/>
      <point x="168.906" y="355.26"/>
      <point x="168.906" y="516.324" type="curve"/>
      <point x="168.906" y="641.059"/>
      <point x="464.176" y="581.839"/>
      <point x="521.639" y="515.695" type="curve"/>
      <point x="409.531" y="690.583" type="line"/>
      <point x="479.369" y="477.844" type="line"/>
    </contour>
  </outline>
  <guideline angle="0" x="0" y="-18"/>
  <guideline angle="0" x="0" y="758"/>
</glyph>
<glyph name="T" format="2">
	<advance width="750"/>
	<unicode hex="0054"/>
	<outline>
		<contour>
			<point x="648" y="557" type="line"/>
			<point x="547" y="661" type="line"/>
			<point x="593" y="395" type="line"/>
			<point x="723" y="395" type="line"/>
			<point x="736" y="740" type="line"/>
			<point x="14" y="740" type="line"/>
			<point x="27" y="395" type="line"/>
			<point x="147" y="395" type="line"/>
			<point x="193" y="661" type="line"/>
			<point x="100" y="557" type="line"/>
		</contour>
		<contour>
			<point x="288" y="671" type="line"/>
			<point x="288" y="76" type="line"/>
			<point x="326" y="202" type="line"/>
			<point x="171" y="156" type="line"/>
			<point x="171" y="0" type="line"/>
			<point x="569" y="0" type="line"/>
			<point x="569" y="156" type="line"/>
			<point x="412" y="203" type="line"/>
			<point x="452" y="76" type="line"/>
			<point x="452" y="671" type="line"/>
		</contour>
	</outline>
</glyph>
<glyph name="U" format="2">
	<advance width="842"/>
	<unicode hex="0055"/>
	<outline>
		<contour>
			<point x="626" y="105" type="line"/>
			<point x="641" y="183" type="line"/>
			<point x="603" y="273" type="line"/>
			<point x="564" y="223"/>
			<point x="543" y="176"/>
			<point x="404" y="176" type="curve" smooth="yes"/>
			<point x="278" y="176"/>
			<point x="261" y="243"/>
			<point x="261" y="335" type="curve" smooth="yes"/>
			<point x="261" y="595" type="line"/>
			<point x="225" y="538" type="line"/>
			<point x="350" y="589" type="line"/>
			<point x="350" y="740" type="line"/>
			<point x="14" y="740" type="line"/>
			<point x="14" y="584" type="line"/>
			<point x="134" y="532" type="line"/>
			<point x="97" y="596" type="line"/>
			<point x="97" y="241" type="line" smooth="yes"/>
			<point x="97" y="38"/>
			<point x="168" y="-20"/>
			<point x="332" y="-20" type="curve" smooth="yes"/>
			<point x="450" y="-20"/>
			<point x="487" y="16"/>
			<point x="530" y="105" type="curve"/>
		</contour>
		<contour>
			<point x="811" y="156" type="line"/>
			<point x="687" y="214" type="line"/>
			<point x="731" y="80" type="line"/>
			<point x="731" y="598" type="line"/>
			<point x="695" y="530" type="line"/>
			<point x="811" y="584" type="line"/>
			<point x="811" y="740" type="line"/>
			<point x="471" y="740" type="line"/>
			<point x="471" y="589" type="line"/>
			<point x="604" y="537" type="line"/>
			<point x="567" y="596" type="line"/>
			<point x="567" y="0" type="line"/>
			<point x="811" y="0" type="line"/>
		</contour>
	</outline>
</glyph>
<glyph name="V" format="2">
	<advance width="828"/>
	<unicode hex="0056"/>
	<outline>
		<contour>
			<point x="798" y="584" type="line"/>
			<point x="798" y="740" type="line"/>
			<point x="470" y="740" type="line"/>
			<point x="470" y="594" type="line"/>
			<point x="594" y="541" type="line"/>
			<point x="566" y="589" type="line"/>
			<point x="413" y="151" type="line"/>
			<point x="476" y="191" type="line"/>
			<point x="356" y="191" type="line"/>
			<point x="426" y="151" type="line"/>
			<point x="269" y="589" type="line"/>
			<point x="229" y="531" type="line"/>
			<point x="352" y="594" type="line"/>
			<point x="352" y="740" type="line"/>
			<point x="22" y="740" type="line"/>
			<point x="22" y="584" type="line"/>
			<point x="139" y="533" type="line"/>
			<point x="90" y="588" type="line"/>
			<point x="317" y="0" type="line"/>
			<point x="508" y="0" type="line"/>
			<point x="726" y="588" type="line"/>
			<point x="679" y="536" type="line"/>
		</contour>
	</outline>
</glyph>
<glyph name="W" format="2">
  <advance width="1200"/>
  <unicode hex="0057"/>
  <outline>
    <contour>
      <point x="887" y="200" type="line"/>
      <point x="812" y="200" type="line"/>
      <point x="866" y="177" type="line"/>
      <point x="730" y="691" type="line"/>
      <point x="512" y="691" type="line"/>
      <point x="393" y="197" type="line"/>
      <point x="412" y="213" type="line"/>
      <point x="347" y="213" type="line"/>
      <point x="373" y="197" type="line"/>
      <point x="284" y="607" type="line"/>
      <point x="263" y="553" type="line"/>
      <point x="398" y="589" type="line"/>
      <point x="398" y="741" type="line"/>
      <point x="37" y="741" type="line"/>
      <point x="37" y="589" type="line"/>
      <point x="170" y="553" type="line"/>
      <point x="130" y="589" type="line"/>
      <point x="256" y="0" type="line"/>
      <point x="479" y="0" type="line"/>
      <point x="602" y="536" type="line"/>
      <point x="589" y="527" type="line"/>
      <point x="634" y="527" type="line"/>
      <point x="623" y="536" type="line"/>
      <point x="758" y="0" type="line"/>
      <point x="976" y="0" type="line"/>
      <point x="1102" y="589" type="line"/>
      <point x="1062" y="553" type="line"/>
      <point x="1195" y="589" type="line"/>
      <point x="1195" y="741" type="line"/>
      <point x="834" y="741" type="line"/>
      <point x="834" y="589" type="line"/>
      <point x="969" y="553" type="line"/>
      <point x="975" y="608" type="line"/>
      <point x="886" y="197" type="line"/>
    </contour>
  </outline>
</glyph>
<glyph name="X" format="2">
	<advance width="792"/>
	<unicode hex="0058"/>
	<outline>
		<contour>
			<point x="323" y="308" type="line"/>
			<point x="323" y="422" type="line"/>
			<point x="473" y="422" type="line"/>
			<point x="473" y="308" type="line"/>
		</contour>
		<contour>
			<point x="60" y="106" type="line"/>
			<point x="280" y="411" type="line"/>
			<point x="403" y="384" type="line"/>
			<point x="615" y="697" type="line"/>
			<point x="746" y="652" type="line"/>
			<point x="515" y="318" type="line"/>
			<point x="397" y="344" type="line"/>
			<point x="183" y="45" type="line"/>
		</contour>
		<contour>
			<point x="759" y="80" type="line"/>
			<point x="618" y="27" type="line"/>
			<point x="403" y="329" type="line"/>
			<point x="305" y="272" type="line"/>
			<point x="55" y="640" type="line"/>
			<point x="176" y="723" type="line"/>
			<point x="397" y="399" type="line"/>
			<point x="530" y="399" type="line"/>
		</contour>
		<contour>
			<point x="564" y="222" type="line"/>
			<point x="633" y="208" type="line"/>
			<point x="774" y="156" type="line"/>
			<point x="774" y="0" type="line"/>
			<point x="446" y="0" type="line"/>
			<point x="446" y="152" type="line"/>
		</contour>
		<contour>
			<point x="192" y="243" type="line"/>
			<point x="357" y="152" type="line"/>
			<point x="357" y="0" type="line"/>
			<point x="26" y="0" type="line"/>
			<point x="26" y="156" type="line"/>
			<point x="152" y="201" type="line"/>
		</contour>
		<contour>
			<point x="269" y="550" type="line"/>
			<point x="149" y="550" type="line"/>
			<point x="29" y="584" type="line"/>
			<point x="29" y="740" type="line"/>
			<point x="367" y="740" type="line"/>
			<point x="367" y="588" type="line"/>
		</contour>
		<contour>
			<point x="535" y="550" type="line"/>
			<point x="437" y="588" type="line"/>
			<point x="437" y="740" type="line"/>
			<point x="764" y="740" type="line"/>
			<point x="764" y="584" type="line"/>
			<point x="650" y="550" type="line"/>
		</contour>
	</outline>
</glyph>
<glyph name="Y" format="2">
  <advance width="708"/>
  <unicode hex="0059"/>
  <outline>
    <contour>
      <point x="423" y="319" type="line"/>
      <point x="423" y="59" type="line"/>
      <point x="367" y="201" type="line"/>
      <point x="548" y="152" type="line"/>
      <point x="548" y="0" type="line"/>
      <point x="138" y="0" type="line"/>
      <point x="138" y="152" type="line"/>
      <point x="329" y="208" type="line"/>
      <point x="273" y="58" type="line"/>
      <point x="273" y="319" type="line"/>
    </contour>
    <contour>
      <point x="536" y="663" type="line"/>
      <point x="662" y="641" type="line"/>
      <point x="417" y="249" type="line"/>
      <point x="279" y="249" type="line"/>
      <point x="49" y="646" type="line"/>
      <point x="208" y="649" type="line"/>
      <point x="390" y="333" type="line"/>
      <point x="291" y="392" type="line"/>
      <point x="406" y="392" type="line"/>
      <point x="337" y="345" type="line"/>
    </contour>
    <contour>
      <point x="211" y="550" type="line"/>
      <point x="128" y="550" type="line"/>
      <point x="-5" y="589" type="line"/>
      <point x="-5" y="740" type="line"/>
      <point x="320" y="740" type="line"/>
      <point x="320" y="588" type="line"/>
    </contour>
    <contour>
      <point x="505" y="550" type="line"/>
      <point x="390" y="588" type="line"/>
      <point x="390" y="740" type="line"/>
      <point x="715" y="740" type="line"/>
      <point x="715" y="588" type="line"/>
      <point x="572" y="550" type="line"/>
    </contour>
  </outline>
</glyph>
<glyph name="Z" format="2">
	<advance width="655"/>
	<unicode hex="005A"/>
	<outline>
		<contour>
			<point x="31" y="740" type="line"/>
			<point x="46" y="435" type="line"/>
			<point x="177" y="435" type="line"/>
			<point x="194" y="691" type="line"/>
			<point x="88" y="557" type="line"/>
			<point x="537" y="557" type="line"/>
			<point x="537" y="624" type="line"/>
			<point x="22" y="172" type="line"/>
			<point x="22" y="0" type="line"/>
			<point x="641" y="0" type="line"/>
			<point x="630" y="321" type="line"/>
			<point x="503" y="321" type="line"/>
			<point x="467" y="54" type="line"/>
			<point x="617" y="183" type="line"/>
			<point x="153" y="183" type="line"/>
			<point x="153" y="102" type="line"/>
			<point x="622" y="506" type="line"/>
			<point x="622" y="740" type="line"/>
		</contour>
		<contour>
			<point x="520" y="586" type="line"/>
			<point x="400" y="586" type="line"/>
			<point x="400" y="458" type="line"/>
		</contour>
		<contour>
			<point x="278" y="113" type="line"/>
			<point x="278" y="247" type="line"/>
			<point x="155" y="247" type="line"/>
			<point x="155" y="113" type="line"/>
		</contour>
	</outline>
</glyph>
<glyph name="bracketright" format="2">
	<advance width="500"/>
	<unicode hex="005D"/>
	<outline>
		<contour>
			<point x="96" y="788" type="line"/>
			<point x="92" y="631" type="line"/>
			<point x="265" y="607" type="line"/>
			<point x="238" y="720" type="line"/>
			<point x="238" y="-70" type="line"/>
			<point x="265" y="43" type="line"/>
			<point x="92" y="19" type="line"/>
			<point x="96" y="-138" type="line"/>
			<point x="393" y="-132" type="line"/>
			<point x="393" y="782" type="line"/>
		</contour>
	</outline>
</glyph>
<glyph name="a" format="2">
  <advance width="577"/>
  <unicode hex="0061"/>
  <outline>
    <contour>
      <point x="73.0" y="327.0"/>
      <point x="17.0" y="276"/>
      <point x="17" y="154" type="curve" smooth="yes"/>
      <point x="17.0" y="39.0"/>
      <point x="71.0" y="-18.0"/>
      <point x="181" y="-18" type="curve" smooth="yes"/>
      <point x="286.0" y="-18.0"/>
      <point x="315.0" y="9.0"/>
      <point x="315" y="105" type="curve"/>
      <point x="288" y="70" type="line"/>
      <point x="396" y="70" type="line"/>
      <point x="396" y="70"/>
      <point x="381" y="162"/>
      <point x="381" y="162" type="curve"/>
      <point x="362" y="132"/>
      <point x="304" y="111"/>
      <point x="252" y="111" type="curve" smooth="yes"/>
      <point x="202.0" y="111.0"/>
      <point x="179.0" y="126.0"/>
      <point x="179" y="163" type="curve" smooth="yes"/>
      <point x="179.0" y="210.0"/>
      <point x="197.0" y="223.0"/>
      <point x="246" y="223" type="curve" smooth="yes"/>
      <point x="282" y="223"/>
      <point x="323" y="219"/>
      <point x="372" y="192" type="curve"/>
      <point x="355" y="232" type="line"/>
      <point x="333" y="325"/>
      <point x="266.0" y="327.0"/>
      <point x="197" y="327" type="curve" smooth="yes"/>
    </contour>
    <contour>
      <point x="349" y="0" type="line"/>
      <point x="566" y="0" type="line"/>
      <point x="566" y="152" type="line"/>
      <point x="479" y="202" type="line"/>
      <point x="512" y="81" type="line"/>
      <point x="512" y="333" type="line" smooth="yes"/>
      <point x="512" y="488"/>
      <point x="447" y="558.0"/>
      <point x="287" y="558" type="curve" smooth="yes"/>
      <point x="187.0" y="558.0"/>
      <point x="115" y="542.0"/>
      <point x="45" y="503" type="curve"/>
      <point x="75" y="370" type="line"/>
      <point x="121.0" y="385.0"/>
      <point x="173.0" y="390.0"/>
      <point x="229" y="390" type="curve" smooth="yes"/>
      <point x="312.0" y="390.0"/>
      <point x="349" y="378"/>
      <point x="349" y="306" type="curve" smooth="yes"/>
    </contour>
  </outline>
</glyph>
<glyph name="b" format="2">
  <advance width="676"/>
  <unicode hex="0062"/>
  <outline>
    <contour>
      <point x="439.232" y="-18" type="curve" smooth="yes"/>
      <point x="345" y="-18"/>
      <point x="315" y="17"/>
      <point x="296" y="144" type="curve"/>
      <point x="378" y="96" type="line"/>
      <point x="257" y="96" type="line"/>
      <point x="240" y="229" type="line"/>
      <point x="277" y="188"/>
      <point x="316" y="168"/>
      <point x="384.059" y="168" type="curve" smooth="yes"/>
      <point x="443" y="168"/>
      <point x="483" y="183"/>
      <point x="483" y="267.029" type="curve" smooth="yes"/>
      <point x="483" y="350"/>
      <point x="444" y="370"/>
      <point x="375.378" y="370" type="curve" smooth="yes"/>
      <point x="314" y="370"/>
      <point x="265" y="354"/>
      <point x="220" y="276" type="curve"/>
      <point x="252" y="435" type="line"/>
      <point x="374" y="435" type="line"/>
      <point x="302" y="387" type="line"/>
      <point x="302" y="507"/>
      <point x="360" y="546"/>
      <point x="454" y="546" type="curve" smooth="yes"/>
      <point x="598" y="546"/>
      <point x="638" y="454"/>
      <point x="638" y="264" type="curve" smooth="yes"/>
      <point x="638" y="59"/>
      <point x="579" y="-18"/>
    </contour>
    <contour>
      <point x="44" y="0" type="line"/>
      <point x="44" y="152" type="line"/>
      <point x="142" y="197" type="line"/>
      <point x="116" y="153" type="line"/>
      <point x="116" y="594" type="line"/>
      <point x="153" y="530" type="line"/>
      <point x="45" y="578" type="line"/>
      <point x="45" y="750" type="line"/>
      <point x="269" y="750" type="line"/>
      <point x="269" y="96" type="line"/>
      <point x="249" y="0" type="line"/>
    </contour>
  </outline>
</glyph>
<glyph name="c" format="2">
	<advance width="576"/>
	<unicode hex="0063"/>
	<outline>
		<contour>
			<point x="539" y="86" type="curve"/>
			<point x="481" y="194" type="line"/>
			<point x="429" y="173"/>
			<point x="408" y="167"/>
			<point x="318" y="167" type="curve" smooth="yes"/>
			<point x="231" y="167"/>
			<point x="195" y="201"/>
			<point x="195" y="274.029" type="curve" smooth="yes"/>
			<point x="195" y="345"/>
			<point x="229" y="372"/>
			<point x="298" y="372" type="curve"/>
			<point x="358" y="372"/>
			<point x="406" y="364"/>
			<point x="464" y="312" type="curve"/>
			<point x="359" y="432" type="line"/>
			<point x="374" y="267" type="line"/>
			<point x="521" y="267" type="line"/>
			<point x="533" y="486" type="line"/>
			<point x="496" y="527"/>
			<point x="432" y="558"/>
			<point x="298" y="558" type="curve" smooth="yes"/>
			<point x="115" y="558"/>
			<point x="43" y="478"/>
			<point x="43" y="281.892" type="curve" smooth="yes"/>
			<point x="43" y="97"/>
			<point x="107" y="-18"/>
			<point x="292.446" y="-18" type="curve" smooth="yes"/>
			<point x="411" y="-18"/>
			<point x="489" y="29"/>
		</contour>
	</outline>
</glyph>
<glyph name="d" format="2">
  <advance width="647"/>
  <unicode hex="0064"/>
  <outline>
    <contour>
      <point x="296" y="125" type="curve" smooth="yes"/>
      <point x="370" y="125"/>
      <point x="444" y="167"/>
      <point x="477" y="231" type="curve"/>
      <point x="432" y="88" type="line"/>
      <point x="361" y="88" type="line"/>
      <point x="386" y="132" type="line"/>
      <point x="386" y="28"/>
      <point x="322" y="-10"/>
      <point x="235" y="-10" type="curve" smooth="yes"/>
      <point x="117" y="-10"/>
      <point x="49" y="66"/>
      <point x="49" y="272" type="curve" smooth="yes"/>
      <point x="49" y="529"/>
      <point x="152" y="564"/>
      <point x="268" y="564" type="curve" smooth="yes"/>
      <point x="379" y="564"/>
      <point x="440" y="501"/>
      <point x="440" y="403" type="curve"/>
      <point x="429" y="397" type="line"/>
      <point x="418" y="439"/>
      <point x="352" y="451"/>
      <point x="298" y="451" type="curve" smooth="yes"/>
      <point x="234" y="451"/>
      <point x="184" y="432"/>
      <point x="184" y="318" type="curve" smooth="yes"/>
      <point x="184" y="145"/>
      <point x="216" y="125"/>
    </contour>
    <contour>
      <point x="304" y="760" type="line"/>
      <point x="546" y="760" type="line"/>
      <point x="546" y="87" type="line"/>
      <point x="491" y="118" type="line"/>
      <point x="603" y="88" type="line"/>
      <point x="603" y="0" type="line"/>
      <point x="421" y="0" type="line"/>
      <point x="421" y="671" type="line"/>
      <point x="449" y="632" type="line"/>
      <point x="304" y="671" type="line"/>
    </contour>
  </outline>
</glyph>
<glyph name="e" format="2">
	<advance width="644"/>
	<unicode hex="0065"/>
	<outline>
		<contour>
			<point x="568" y="47" type="curve"/>
			<point x="499" y="179" type="line"/>
			<point x="464" y="157"/>
			<point x="413" y="142"/>
			<point x="311" y="142" type="curve" smooth="yes"/>
			<point x="247" y="142"/>
			<point x="179" y="157"/>
			<point x="179" y="235" type="curve"/>
			<point x="140" y="203" type="line"/>
			<point x="594" y="203" type="line"/>
			<point x="603" y="490"/>
			<point x="522" y="558"/>
			<point x="314" y="558" type="curve" smooth="yes"/>
			<point x="82" y="558"/>
			<point x="29" y="402"/>
			<point x="29" y="263" type="curve" smooth="yes"/>
			<point x="29" y="62"/>
			<point x="112" y="-18"/>
			<point x="314" y="-18" type="curve" smooth="yes"/>
			<point x="434" y="-18"/>
			<point x="500" y="-2"/>
		</contour>
		<contour>
			<point x="179" y="252" type="line"/>
			<point x="179" y="357"/>
			<point x="224" y="396"/>
			<point x="326" y="396" type="curve" smooth="yes"/>
			<point x="423" y="396"/>
			<point x="454" y="352"/>
			<point x="454" y="289" type="curve"/>
			<point x="516" y="316" type="line"/>
			<point x="286" y="316" type="line" smooth="yes"/>
			<point x="237" y="316"/>
			<point x="242" y="290"/>
			<point x="242" y="238" type="curve"/>
			<point x="279" y="266" type="line"/>
			<point x="141" y="266" type="line"/>
		</contour>
	</outline>
</glyph>
<glyph name="f" format="2">
  <advance width="476"/>
  <unicode hex="0066"/>
  <outline>
    <contour>
      <point x="29" y="0" type="line"/>
      <point x="429" y="0" type="line"/>
      <point x="429" y="155" type="line"/>
      <point x="230" y="199" type="line"/>
      <point x="275" y="135" type="line"/>
      <point x="275" y="515" type="line" smooth="yes"/>
      <point x="275" y="575"/>
      <point x="278" y="607"/>
      <point x="366" y="607" type="curve" smooth="yes"/>
      <point x="395" y="607"/>
      <point x="431" y="607"/>
      <point x="480" y="601" type="curve"/>
      <point x="501" y="741" type="line"/>
      <point x="452" y="757"/>
      <point x="368" y="770"/>
      <point x="324" y="770" type="curve" smooth="yes"/>
      <point x="200" y="770"/>
      <point x="126" y="710"/>
      <point x="127" y="557" type="curve" smooth="yes"/>
      <point x="129" y="141" type="line"/>
      <point x="171" y="202" type="line"/>
      <point x="29" y="155" type="line"/>
    </contour>
    <contour>
      <point x="205" y="308" type="line"/>
      <point x="219" y="309" type="line"/>
      <point x="449" y="356" type="line"/>
      <point x="449" y="502" type="line"/>
      <point x="221" y="534" type="line"/>
      <point x="205" y="540" type="line"/>
      <point x="36" y="504" type="line"/>
      <point x="36" y="354" type="line"/>
    </contour>
  </outline>
</glyph>
<glyph name="g" format="2">
  <advance width="626"/>
  <unicode hex="0067"/>
  <guideline x="372" identifier="Exaf3igcX6"/>
  <outline>
    <contour>
      <point x="23" y="261" type="curve" smooth="yes"/>
      <point x="23" y="90"/>
      <point x="63" y="20"/>
      <point x="198" y="20" type="curve" smooth="yes"/>
      <point x="311" y="20"/>
      <point x="353" y="71"/>
      <point x="353" y="154" type="curve"/>
      <point x="271" y="106" type="line"/>
      <point x="402" y="106" type="line"/>
      <point x="435" y="249" type="line"/>
      <point x="390" y="177"/>
      <point x="351" y="170"/>
      <point x="282" y="170" type="curve"/>
      <point x="217" y="170"/>
      <point x="177" y="180"/>
      <point x="177" y="278" type="curve" smooth="yes"/>
      <point x="177" y="350"/>
      <point x="217" y="368"/>
      <point x="282" y="368" type="curve"/>
      <point x="333" y="368"/>
      <point x="390" y="363"/>
      <point x="425" y="304" type="curve"/>
      <point x="407" y="435" type="line"/>
      <point x="326" y="435" type="line"/>
      <point x="360" y="382" type="line"/>
      <point x="350" y="511"/>
      <point x="318" y="558"/>
      <point x="222" y="558" type="curve"/>
      <point x="73" y="558"/>
      <point x="23" y="475"/>
    </contour>
    <contour>
      <point x="60" y="-22" type="curve"/>
      <point x="10" y="-145" type="line"/>
      <point x="79" y="-184"/>
      <point x="139" y="-220"/>
      <point x="273" y="-220" type="curve"/>
      <point x="441" y="-220"/>
      <point x="558" y="-125"/>
      <point x="558" y="100" type="curve" smooth="yes"/>
      <point x="558" y="407" type="line"/>
      <point x="528" y="347" type="line"/>
      <point x="612" y="347" type="line"/>
      <point x="612" y="540" type="line"/>
      <point x="390" y="540" type="line"/>
      <point x="390" y="102" type="line" smooth="yes"/>
      <point x="390" y="-6"/>
      <point x="365" y="-54"/>
      <point x="237" y="-54" type="curve"/>
      <point x="163" y="-54"/>
      <point x="121" y="-43"/>
    </contour>
  </outline>
</glyph>
<glyph name="h" format="2">
  <advance width="649"/>
  <unicode hex="0068"/>
  <outline>
    <contour>
      <point x="614" y="88" type="line"/>
      <point x="502" y="143" type="line"/>
      <point x="560" y="85" type="line"/>
      <point x="560" y="369" type="line" smooth="yes"/>
      <point x="560" y="509"/>
      <point x="507" y="555"/>
      <point x="396" y="555" type="curve" smooth="yes"/>
      <point x="299" y="555"/>
      <point x="256" y="511"/>
      <point x="250" y="409" type="curve"/>
      <point x="285" y="445" type="line"/>
      <point x="201" y="445" type="line"/>
      <point x="200" y="337" type="line"/>
      <point x="227" y="390"/>
      <point x="284" y="406"/>
      <point x="340" y="406" type="curve" smooth="yes"/>
      <point x="418" y="406"/>
      <point x="438" y="385"/>
      <point x="438" y="348" type="curve" smooth="yes"/>
      <point x="438" y="85" type="line"/>
      <point x="466" y="127" type="line"/>
      <point x="381" y="88" type="line"/>
      <point x="381" y="-1" type="line"/>
      <point x="614" y="-1" type="line"/>
    </contour>
    <contour>
      <point x="275" y="-1" type="line"/>
      <point x="275" y="88" type="line"/>
      <point x="190" y="130" type="line"/>
      <point x="218" y="309" type="line"/>
      <point x="218" y="760" type="line"/>
      <point x="36" y="760" type="line"/>
      <point x="36" y="640" type="line"/>
      <point x="148" y="640" type="line"/>
      <point x="96" y="669" type="line"/>
      <point x="96" y="95" type="line"/>
      <point x="111" y="121" type="line"/>
      <point x="36" y="88" type="line"/>
      <point x="36" y="-1" type="line"/>
    </contour>
    <contour>
      <point x="614" y="88" type="line"/>
      <point x="502" y="143" type="line"/>
      <point x="560" y="85" type="line"/>
      <point x="560" y="369" type="line" smooth="yes"/>
      <point x="560" y="509"/>
      <point x="507" y="555"/>
      <point x="396" y="555" type="curve" smooth="yes"/>
      <point x="299" y="555"/>
      <point x="256" y="511"/>
      <point x="250" y="409" type="curve"/>
      <point x="285" y="445" type="line"/>
      <point x="201" y="445" type="line"/>
      <point x="200" y="337" type="line"/>
      <point x="227" y="390"/>
      <point x="284" y="406"/>
      <point x="340" y="406" type="curve" smooth="yes"/>
      <point x="418" y="406"/>
      <point x="438" y="385"/>
      <point x="438" y="348" type="curve" smooth="yes"/>
      <point x="438" y="85" type="line"/>
      <point x="466" y="127" type="line"/>
      <point x="381" y="88" type="line"/>
      <point x="381" y="-1" type="line"/>
      <point x="614" y="-1" type="line"/>
    </contour>
    <contour>
      <point x="275" y="-1" type="line"/>
      <point x="275" y="88" type="line"/>
      <point x="190" y="130" type="line"/>
      <point x="218" y="88" type="line"/>
      <point x="218" y="539" type="line"/>
      <point x="36" y="760" type="line"/>
      <point x="36" y="640" type="line"/>
      <point x="148" y="640" type="line"/>
      <point x="96" y="669" type="line"/>
      <point x="96" y="95" type="line"/>
      <point x="111" y="121" type="line"/>
      <point x="36" y="88" type="line"/>
      <point x="36" y="-1" type="line"/>
    </contour>
  </outline>
</glyph>
<glyph name="i" format="2">
  <advance width="341"/>
  <unicode hex="0069"/>
  <outline>
    <contour>
      <point x="306" y="-1" type="line"/>
      <point x="306" y="88" type="line"/>
      <point x="206" y="123" type="line"/>
      <point x="234" y="88" type="line"/>
      <point x="234" y="539" type="line"/>
      <point x="37" y="539" type="line"/>
      <point x="37" y="419" type="line"/>
      <point x="164" y="419" type="line"/>
      <point x="112" y="448" type="line"/>
      <point x="112" y="95" type="line"/>
      <point x="127" y="114" type="line"/>
      <point x="37" y="88" type="line"/>
      <point x="37" y="-1" type="line"/>
    </contour>
    <contour>
      <point x="156" y="641" type="curve"/>
      <point x="211" y="640"/>
      <point x="240" y="665"/>
      <point x="240" y="728" type="curve" smooth="yes"/>
      <point x="240" y="794"/>
      <point x="211" y="816"/>
      <point x="156" y="816" type="curve"/>
      <point x="99" y="817"/>
      <point x="72" y="792"/>
      <point x="72" y="729" type="curve" smooth="yes"/>
      <point x="72" y="663"/>
      <point x="99" y="641"/>
    </contour>
  </outline>
</glyph>
<glyph name="j" format="2">
	<advance width="393"/>
	<unicode hex="006A"/>
	<outline>
		<contour>
			<point x="8" y="-39" type="line"/>
			<point x="-22" y="-185" type="line"/>
			<point x="-5.26373" y="-190.517" type="line" smooth="yes"/>
			<point x="40.8923" y="-205.8"/>
			<point x="95.8593" y="-224"/>
			<point x="135" y="-224" type="curve" smooth="yes"/>
			<point x="259" y="-224"/>
			<point x="347" y="-199.652"/>
			<point x="347" y="50" type="curve" smooth="yes"/>
			<point x="347" y="540" type="line"/>
			<point x="98" y="540" type="line"/>
			<point x="98" y="366" type="line"/>
			<point x="252" y="319" type="line"/>
			<point x="197" y="446" type="line"/>
			<point x="197.012" y="100.445" type="line" smooth="yes"/>
			<point x="197.016" y="-2.2104"/>
			<point x="194.379" y="-47"/>
			<point x="108.282" y="-47" type="curve" smooth="yes"/>
		</contour>
		<contour>
			<point x="240.854" y="624.665" type="curve" smooth="yes"/>
			<point x="317.334" y="624.665"/>
			<point x="341.616" y="645.599"/>
			<point x="341.616" y="718.447" type="curve" smooth="yes"/>
			<point x="341.616" y="791.295"/>
			<point x="317.334" y="813.065"/>
			<point x="238.625" y="813.065" type="curve" smooth="yes"/>
			<point x="159.915" y="813.065"/>
			<point x="135.633" y="791.295"/>
			<point x="135.633" y="719.284" type="curve" smooth="yes"/>
			<point x="135.633" y="648.111"/>
			<point x="159.915" y="624.665"/>
		</contour>
	</outline>
</glyph>
<glyph name="k" format="2">
  <advance width="626"/>
  <unicode hex="006B"/>
  <outline>
    <contour>
      <point x="311" y="0" type="line"/>
      <point x="311" y="152" type="line"/>
      <point x="229" y="199" type="line"/>
      <point x="256" y="85" type="line"/>
      <point x="256" y="740" type="line"/>
      <point x="29" y="740" type="line"/>
      <point x="29" y="578" type="line"/>
      <point x="158" y="520" type="line"/>
      <point x="100" y="648" type="line"/>
      <point x="100" y="92" type="line"/>
      <point x="132" y="199" type="line"/>
      <point x="29" y="152" type="line"/>
      <point x="29" y="0" type="line"/>
    </contour>
    <contour>
      <point x="327" y="243" type="line"/>
      <point x="465" y="135" type="line"/>
      <point x="417" y="199" type="line"/>
      <point x="358" y="152" type="line"/>
      <point x="360" y="0" type="line"/>
      <point x="602" y="0" type="line"/>
      <point x="602" y="162" type="line"/>
      <point x="385" y="205" type="line"/>
      <point x="579" y="130" type="line"/>
      <point x="408" y="301" type="line"/>
      <point x="400" y="228" type="line"/>
      <point x="571" y="418" type="line"/>
      <point x="451" y="354" type="line"/>
      <point x="608" y="388" type="line"/>
      <point x="608" y="540" type="line"/>
      <point x="327" y="540" type="line"/>
      <point x="327" y="378" type="line"/>
      <point x="403" y="325" type="line"/>
      <point x="422" y="390" type="line"/>
      <point x="303" y="257" type="line"/>
      <point x="437" y="310" type="line"/>
      <point x="140" y="310" type="line"/>
      <point x="159" y="224" type="line"/>
      <point x="365" y="224" type="line"/>
    </contour>
  </outline>
</glyph>
<glyph name="l" format="2">
  <advance width="352"/>
  <unicode hex="006C"/>
  <outline>
    <contour>
      <point x="326" y="0" type="line"/>
      <point x="326" y="152" type="line"/>
      <point x="229" y="199" type="line"/>
      <point x="256" y="85" type="line"/>
      <point x="256" y="740" type="line"/>
      <point x="29" y="740" type="line"/>
      <point x="29" y="578" type="line"/>
      <point x="158" y="520" type="line"/>
      <point x="100" y="648" type="line"/>
      <point x="100" y="92" type="line"/>
      <point x="132" y="199" type="line"/>
      <point x="29" y="152" type="line"/>
      <point x="29" y="0" type="line"/>
    </contour>
  </outline>
</glyph>
<glyph name="m" format="2">
  <advance width="1040"/>
  <unicode hex="006D"/>
  <outline>
    <contour>
      <point x="39" y="-1" type="line"/>
      <point x="339" y="-1" type="line"/>
      <point x="339" y="152" type="line"/>
      <point x="239" y="202" type="line"/>
      <point x="285" y="88" type="line"/>
      <point x="285" y="540" type="line"/>
      <point x="39" y="540" type="line"/>
      <point x="39" y="378" type="line"/>
      <point x="169" y="327" type="line"/>
      <point x="119" y="448" type="line"/>
      <point x="119" y="95" type="line"/>
      <point x="142" y="202" type="line"/>
      <point x="39" y="152" type="line"/>
    </contour>
    <contour>
      <point x="397" y="-1" type="line"/>
      <point x="674" y="-1" type="line"/>
      <point x="674" y="149" type="line"/>
      <point x="552" y="212" type="line"/>
      <point x="618" y="85" type="line"/>
      <point x="618" y="369" type="line" smooth="yes"/>
      <point x="618.0" y="518"/>
      <point x="559" y="558"/>
      <point x="467" y="558" type="curve" smooth="yes"/>
      <point x="367" y="558"/>
      <point x="339" y="514"/>
      <point x="333" y="409" type="curve"/>
      <point x="374" y="435" type="line"/>
      <point x="240" y="435" type="line"/>
      <point x="230" y="307" type="line"/>
      <point x="268.08254391554595" y="358.46289718317024"/>
      <point x="320.50877192982455" y="366.0"/>
      <point x="364" y="366" type="curve"/>
      <point x="428.70454545454544" y="366.0"/>
      <point x="442" y="345"/>
      <point x="442" y="288" type="curve" smooth="yes"/>
      <point x="442" y="85" type="line"/>
      <point x="468" y="202" type="line"/>
      <point x="397" y="152" type="line"/>
    </contour>
    <contour>
      <point x="732" y="-1" type="line"/>
      <point x="1018" y="-1" type="line"/>
      <point x="1018" y="163" type="line"/>
      <point x="906" y="202" type="line"/>
      <point x="952" y="85" type="line"/>
      <point x="952" y="369" type="line" smooth="yes"/>
      <point x="952" y="516.0"/>
      <point x="907" y="558.0"/>
      <point x="801" y="558" type="curve" smooth="yes"/>
      <point x="691" y="558"/>
      <point x="663" y="514"/>
      <point x="657" y="409" type="curve"/>
      <point x="708" y="435" type="line"/>
      <point x="574" y="435" type="line"/>
      <point x="564" y="307" type="line"/>
      <point x="600.9391998269587" y="358.30444420410925"/>
      <point x="665.0322580645161" y="366.0"/>
      <point x="708" y="366" type="curve"/>
      <point x="771.6410256410256" y="366.0"/>
      <point x="776" y="345.3061224489796"/>
      <point x="776" y="288" type="curve" smooth="yes"/>
      <point x="776" y="85" type="line"/>
      <point x="812" y="202" type="line"/>
      <point x="732" y="149" type="line"/>
    </contour>
  </outline>
</glyph>
<glyph name="n" format="2">
  <advance width="659"/>
  <unicode hex="006E"/>
  <outline>
    <contour>
      <point x="21" y="0" type="line"/>
      <point x="302" y="0" type="line"/>
      <point x="302" y="152" type="line"/>
      <point x="221" y="199" type="line"/>
      <point x="247" y="85" type="line"/>
      <point x="247" y="540" type="line"/>
      <point x="21" y="540" type="line"/>
      <point x="21" y="378" type="line"/>
      <point x="150" y="320" type="line"/>
      <point x="92" y="448" type="line"/>
      <point x="92" y="92" type="line"/>
      <point x="124" y="199" type="line"/>
      <point x="21" y="152" type="line"/>
    </contour>
    <contour>
      <point x="371" y="0" type="line"/>
      <point x="639" y="0" type="line"/>
      <point x="639" y="152" type="line"/>
      <point x="524" y="206" type="line"/>
      <point x="573" y="82" type="line"/>
      <point x="573" y="374" type="line" smooth="yes"/>
      <point x="573" y="526"/>
      <point x="536" y="558"/>
      <point x="427" y="558" type="curve"/>
      <point x="317" y="558"/>
      <point x="300" y="514"/>
      <point x="294" y="409" type="curve"/>
      <point x="355" y="435" type="line"/>
      <point x="221" y="435" type="line"/>
      <point x="213" y="303" type="line"/>
      <point x="237" y="336"/>
      <point x="287" y="358"/>
      <point x="341" y="360" type="curve" smooth="yes"/>
      <point x="407" y="362"/>
      <point x="418" y="346"/>
      <point x="418" y="288" type="curve" smooth="yes"/>
      <point x="418" y="82" type="line"/>
      <point x="449" y="206" type="line"/>
      <point x="371" y="152" type="line"/>
    </contour>
  </outline>
</glyph>
<glyph name="o" format="2">
	<advance width="591"/>
	<unicode hex="006F"/>
	<outline>
		<contour>
			<point x="298" y="-18" type="curve" smooth="yes"/>
			<point x="485" y="-18"/>
			<point x="562" y="66"/>
			<point x="562" y="270" type="curve" smooth="yes"/>
			<point x="562" y="474"/>
			<point x="485" y="558"/>
			<point x="298" y="558" type="curve" smooth="yes"/>
			<point x="111" y="558"/>
			<point x="34" y="474"/>
			<point x="34" y="270" type="curve" smooth="yes"/>
			<point x="34" y="66"/>
			<point x="111" y="-18"/>
		</contour>
		<contour>
			<point x="298" y="162" type="curve" smooth="yes"/>
			<point x="226" y="162"/>
			<point x="189" y="179"/>
			<point x="189" y="271" type="curve" smooth="yes"/>
			<point x="189" y="361"/>
			<point x="226" y="378"/>
			<point x="298" y="378" type="curve" smooth="yes"/>
			<point x="371" y="378"/>
			<point x="407" y="362"/>
			<point x="407" y="272" type="curve" smooth="yes"/>
			<point x="407" y="180"/>
			<point x="371" y="162"/>
		</contour>
	</outline>
</glyph>
<glyph name="p" format="2">
	<advance width="644"/>
	<unicode hex="0070"/>
	<outline>
		<contour>
			<point x="20" y="-210" type="line"/>
			<point x="20" y="-79" type="line"/>
			<point x="125" y="-39" type="line"/>
			<point x="95" y="-89" type="line"/>
			<point x="95" y="449" type="line"/>
			<point x="125" y="329" type="line"/>
			<point x="35" y="329" type="line"/>
			<point x="35" y="540" type="line"/>
			<point x="250" y="540" type="line"/>
			<point x="250" y="-84" type="line"/>
			<point x="226" y="-27" type="line"/>
			<point x="403" y="-90" type="line"/>
			<point x="403" y="-210" type="line"/>
		</contour>
		<contour>
			<point x="620" y="276" type="curve" smooth="yes"/>
			<point x="620" y="86"/>
			<point x="580" y="-6"/>
			<point x="436" y="-6" type="curve" smooth="yes"/>
			<point x="342" y="-6"/>
			<point x="286" y="33"/>
			<point x="284" y="153" type="curve"/>
			<point x="356" y="105" type="line"/>
			<point x="234" y="105" type="line"/>
			<point x="202" y="264" type="line"/>
			<point x="247" y="186"/>
			<point x="296" y="170"/>
			<point x="365" y="170" type="curve" smooth="yes"/>
			<point x="426" y="170"/>
			<point x="465" y="190"/>
			<point x="465" y="269" type="curve" smooth="yes"/>
			<point x="465" y="357"/>
			<point x="425" y="372"/>
			<point x="364" y="372" type="curve" smooth="yes"/>
			<point x="298" y="372"/>
			<point x="259" y="352"/>
			<point x="222" y="311" type="curve"/>
			<point x="239" y="444" type="line"/>
			<point x="360" y="444" type="line"/>
			<point x="278" y="396" type="line"/>
			<point x="297" y="523"/>
			<point x="327" y="558"/>
			<point x="430" y="558" type="curve" smooth="yes"/>
			<point x="561" y="558"/>
			<point x="620" y="481"/>
		</contour>
	</outline>
</glyph>
<glyph name="q" format="2">
  <advance width="682"/>
  <unicode hex="0071"/>
  <outline>
    <contour>
      <point x="46" y="276" type="curve" smooth="yes"/>
      <point x="46" y="86"/>
      <point x="86" y="-6"/>
      <point x="230" y="-6" type="curve" smooth="yes"/>
      <point x="324" y="-6"/>
      <point x="382" y="33"/>
      <point x="382" y="153" type="curve"/>
      <point x="310" y="105" type="line"/>
      <point x="432" y="105" type="line"/>
      <point x="464" y="264" type="line"/>
      <point x="419" y="186"/>
      <point x="370" y="170"/>
      <point x="308.622" y="170" type="curve" smooth="yes"/>
      <point x="240" y="170"/>
      <point x="201" y="190"/>
      <point x="201" y="272.971" type="curve" smooth="yes"/>
      <point x="201" y="357"/>
      <point x="241" y="372"/>
      <point x="299.941" y="372" type="curve" smooth="yes"/>
      <point x="368" y="372"/>
      <point x="407" y="352"/>
      <point x="444" y="311" type="curve"/>
      <point x="427" y="444" type="line"/>
      <point x="306" y="444" type="line"/>
      <point x="388" y="396" type="line"/>
      <point x="369" y="523"/>
      <point x="339" y="558"/>
      <point x="244.768" y="558" type="curve" smooth="yes"/>
      <point x="105" y="558"/>
      <point x="46" y="481"/>
    </contour>
    <contour>
      <point x="250" y="-210" type="line"/>
      <point x="652" y="-210" type="line"/>
      <point x="652" y="-62" type="line"/>
      <point x="522" y="-26" type="line"/>
      <point x="570" y="-68" type="line"/>
      <point x="570" y="540" type="line"/>
      <point x="435" y="540" type="line"/>
      <point x="415" y="444" type="line"/>
      <point x="415" y="-68" type="line"/>
      <point x="458" y="-25" type="line"/>
      <point x="250" y="-72" type="line"/>
    </contour>
    <contour>
      <point x="507" y="340" type="line"/>
      <point x="652" y="340" type="line"/>
      <point x="652" y="540" type="line"/>
      <point x="507" y="540" type="line"/>
    </contour>
  </outline>
</glyph>
<glyph name="r" format="2">
  <advance width="570"/>
  <unicode hex="0072"/>
  <guideline y="419" identifier="2T01lr8YzK"/>
  <guideline x="-1422" y="0" angle="0" identifier="Aq3Vog87sG"/>
  <outline>
    <contour>
      <point x="369" y="-1" type="line"/>
      <point x="369" y="139" type="line"/>
      <point x="183" y="181" type="line"/>
      <point x="270" y="138" type="line"/>
      <point x="270" y="539" type="line"/>
      <point x="29" y="539" type="line"/>
      <point x="29" y="356" type="line"/>
      <point x="141" y="356" type="line"/>
      <point x="108" y="448" type="line"/>
      <point x="108" y="145" type="line"/>
      <point x="138" y="176" type="line"/>
      <point x="29" y="138" type="line"/>
      <point x="29" y="-1" type="line"/>
    </contour>
    <contour>
      <point x="548" y="247" type="line"/>
      <point x="575" y="518" type="line"/>
      <point x="559.4952686506707" y="538.6729751324391"/>
      <point x="506.27272727272725" y="555.0"/>
      <point x="455" y="555" type="curve" smooth="yes"/>
      <point x="358.0" y="555.0"/>
      <point x="313.0" y="521.0"/>
      <point x="310" y="410" type="curve"/>
      <point x="374" y="445" type="line"/>
      <point x="253" y="445" type="line"/>
      <point x="238" y="320.0" type="line"/>
      <point x="259" y="344"/>
      <point x="289" y="359"/>
      <point x="327" y="364" type="curve" smooth="yes"/>
      <point x="361" y="368"/>
      <point x="400" y="365"/>
      <point x="442" y="352" type="curve"/>
      <point x="373" y="409" type="line"/>
      <point x="393" y="247" type="line"/>
    </contour>
  </outline>
</glyph>
<glyph name="s" format="2">
  <advance width="519"/>
  <unicode hex="0073"/>
  <outline>
    <contour>
      <point x="23.2246" y="170.056" type="line"/>
      <point x="23.2246" y="170.056"/>
      <point x="129.923" y="170.056"/>
      <point x="129.923" y="170.056" type="curve"/>
      <point x="129.923" y="170.056"/>
      <point x="156.582" y="81.2744"/>
      <point x="284.488" y="81.2744" type="curve" smooth="yes"/>
      <point x="341.174" y="81.2744"/>
      <point x="375.91" y="105"/>
      <point x="375.91" y="136.853" type="curve" smooth="yes"/>
      <point x="375.91" y="265.065"/>
      <point x="4.57174" y="156.948"/>
      <point x="4.57174" y="404.873" type="curve" smooth="yes"/>
      <point x="4.57174" y="516"/>
      <point x="139.925" y="557.897"/>
      <point x="232.132" y="557.897" type="curve" smooth="yes"/>
      <point x="366.501" y="557.897"/>
      <point x="424.917" y="454.036"/>
      <point x="424.917" y="454.036" type="curve"/>
      <point x="372.452" y="467.966" type="line"/>
      <point x="403.445" y="558" type="line"/>
      <point x="490.397" y="558" type="line"/>
      <point x="490.445" y="370.688" type="line"/>
      <point x="490.445" y="370.688"/>
      <point x="378.408" y="370.688"/>
      <point x="378.408" y="370.688" type="curve"/>
      <point x="378.408" y="370.688"/>
      <point x="354.124" y="459.875"/>
      <point x="266.655" y="467.966" type="curve"/>
      <point x="203.654" y="475.772"/>
      <point x="135.396" y="451"/>
      <point x="135.417" y="404.613" type="curve"/>
      <point x="135.417" y="281.789"/>
      <point x="506.335" y="387.218"/>
      <point x="506.335" y="141.813" type="curve" smooth="yes"/>
      <point x="506.335" y="44.104"/>
      <point x="406.172" y="-17.8596"/>
      <point x="298.323" y="-17.8596" type="curve" smooth="yes"/>
      <point x="165.009" y="-17.8596"/>
      <point x="72.8991" y="82.2744"/>
      <point x="72.8991" y="82.2744" type="curve"/>
      <point x="72.8991" y="82.2744"/>
      <point x="145.432" y="73.1809"/>
      <point x="145.432" y="73.1809" type="curve"/>
      <point x="145.432" y="73.1809"/>
      <point x="110.487" y="-19"/>
      <point x="110.487" y="-19" type="curve"/>
      <point x="23.3842" y="-19" type="line"/>
    </contour>
  </outline>
</glyph>
<glyph name="t" format="2">
  <advance width="437"/>
  <unicode hex="0074"/>
  <outline>
    <contour>
      <point x="84" y="281" type="line"/>
      <point x="84" y="135" type="line" smooth="yes"/>
      <point x="84" y="39"/>
      <point x="121" y="-18"/>
      <point x="245" y="-18" type="curve" smooth="yes"/>
      <point x="303" y="-18"/>
      <point x="363" y="-2"/>
      <point x="415" y="43" type="curve"/>
      <point x="378" y="174" type="line"/>
      <point x="351" y="169"/>
      <point x="347" y="169"/>
      <point x="307" y="168" type="curve" smooth="yes"/>
      <point x="256" y="167"/>
      <point x="240" y="189"/>
      <point x="240" y="263" type="curve" smooth="yes"/>
      <point x="240" y="640" type="line"/>
      <point x="84" y="640" type="line"/>
    </contour>
    <contour>
      <point x="1" y="521" type="line"/>
      <point x="1" y="356" type="line"/>
      <point x="120" y="342" type="line"/>
      <point x="165" y="342" type="line"/>
      <point x="373" y="356" type="line"/>
      <point x="373" y="521" type="line"/>
      <point x="157" y="538" type="line"/>
      <point x="119" y="537" type="line"/>
    </contour>
  </outline>
</glyph>
<glyph name="u" format="2">
	<advance width="673"/>
	<unicode hex="0075"/>
	<outline>
		<contour>
			<point x="336" y="540" type="line"/>
			<point x="336" y="377" type="line"/>
			<point x="471" y="377" type="line"/>
			<point x="425" y="452" type="line"/>
			<point x="425" y="0" type="line"/>
			<point x="646" y="0" type="line"/>
			<point x="646" y="163" type="line"/>
			<point x="521" y="202" type="line"/>
			<point x="571" y="92" type="line"/>
			<point x="571" y="540" type="line"/>
		</contour>
		<contour>
			<point x="-10" y="377" type="line"/>
			<point x="109" y="377" type="line"/>
			<point x="63" y="455" type="line"/>
			<point x="63" y="171" type="line" smooth="yes"/>
			<point x="63" y="33"/>
			<point x="109" y="-18"/>
			<point x="209" y="-18" type="curve" smooth="yes"/>
			<point x="321" y="-18"/>
			<point x="369" y="26"/>
			<point x="375" y="131" type="curve"/>
			<point x="314" y="105" type="line"/>
			<point x="451" y="105" type="line"/>
			<point x="451" y="233" type="line"/>
			<point x="408" y="184"/>
			<point x="355" y="164"/>
			<point x="298" y="164" type="curve" smooth="yes"/>
			<point x="225" y="164"/>
			<point x="209" y="190"/>
			<point x="209" y="252" type="curve" smooth="yes"/>
			<point x="209" y="540" type="line"/>
			<point x="-10" y="540" type="line"/>
		</contour>
	</outline>
</glyph>
<glyph name="v" format="2">
	<advance width="716"/>
	<unicode hex="0076"/>
	<outline>
		<contour>
			<point x="241" y="0" type="line"/>
			<point x="478" y="0" type="line"/>
			<point x="668" y="462" type="line"/>
			<point x="507" y="304" type="line"/>
			<point x="686" y="378" type="line"/>
			<point x="686" y="540" type="line"/>
			<point x="390" y="540" type="line"/>
			<point x="390" y="378" type="line"/>
			<point x="493" y="316" type="line"/>
			<point x="475" y="426" type="line"/>
			<point x="352" y="62" type="line"/>
			<point x="374" y="62" type="line"/>
			<point x="245" y="429" type="line"/>
			<point x="211" y="315" type="line"/>
			<point x="335" y="378" type="line"/>
			<point x="335" y="540" type="line"/>
			<point x="37" y="540" type="line"/>
			<point x="37" y="378" type="line"/>
			<point x="199" y="303" type="line"/>
			<point x="66" y="426" type="line"/>
		</contour>
		<contour>
			<point x="288" y="80" type="line"/>
			<point x="442" y="80" type="line"/>
			<point x="442" y="174" type="line"/>
			<point x="288" y="174" type="line"/>
		</contour>
	</outline>
</glyph>
<glyph name="w" format="2">
  <advance width="912"/>
  <unicode hex="0077"/>
  <guideline x="-115" y="196" angle="0" identifier="QVLw6Bqfpc"/>
  <outline>
    <contour>
      <point x="481" y="220" type="line"/>
      <point x="481" y="391" type="line"/>
      <point x="415" y="391" type="line"/>
      <point x="415" y="219" type="line"/>
    </contour>
    <contour>
      <point x="616" y="155" type="line"/>
      <point x="661" y="174" type="line"/>
      <point x="564" y="174" type="line"/>
      <point x="612" y="146" type="line"/>
      <point x="511" y="468" type="line"/>
      <point x="398" y="468" type="line"/>
      <point x="296" y="146" type="line"/>
      <point x="334" y="174" type="line"/>
      <point x="237" y="174" type="line"/>
      <point x="282" y="155" type="line"/>
      <point x="208" y="428" type="line"/>
      <point x="174" y="314" type="line"/>
      <point x="308" y="377" type="line"/>
      <point x="308" y="539" type="line"/>
      <point x="-5" y="539" type="line"/>
      <point x="-5" y="377" type="line"/>
      <point x="162" y="302" type="line"/>
      <point x="54" y="415" type="line"/>
      <point x="180" y="0" type="line"/>
      <point x="380" y="0" type="line"/>
      <point x="471" y="332" type="line"/>
      <point x="425" y="332" type="line"/>
      <point x="520" y="0" type="line"/>
      <point x="708" y="0" type="line"/>
      <point x="834" y="415" type="line"/>
      <point x="736" y="302" type="line"/>
      <point x="893" y="377" type="line"/>
      <point x="893" y="539" type="line"/>
      <point x="590" y="539" type="line"/>
      <point x="590" y="377" type="line"/>
      <point x="724" y="314" type="line"/>
      <point x="690" y="428" type="line"/>
    </contour>
  </outline>
</glyph>
<glyph name="x" format="2">
  <advance width="653"/>
  <unicode hex="0078"/>
  <outline>
    <contour>
      <point x="160" y="347" type="line"/>
      <point x="180" y="349" type="line"/>
      <point x="275" y="378" type="line"/>
      <point x="275" y="540" type="line"/>
      <point x="17" y="540" type="line"/>
      <point x="17" y="378" type="line"/>
    </contour>
    <contour>
      <point x="471" y="347" type="line"/>
      <point x="604" y="378" type="line"/>
      <point x="604" y="540" type="line"/>
      <point x="356" y="540" type="line"/>
      <point x="356" y="378" type="line"/>
      <point x="451" y="349" type="line"/>
    </contour>
    <contour>
      <point x="217" y="130" type="line"/>
      <point x="303" y="259" type="line"/>
      <point x="452" y="253" type="line"/>
      <point x="568" y="404" type="line"/>
      <point x="428" y="404" type="line"/>
      <point x="341" y="296" type="line"/>
      <point x="185" y="296" type="line"/>
      <point x="54" y="130" type="line"/>
    </contour>
    <contour>
      <point x="412" y="130" type="line"/>
      <point x="581" y="130" type="line"/>
      <point x="443" y="313" type="line"/>
      <point x="323" y="262" type="line"/>
    </contour>
    <contour>
      <point x="284" y="298" type="line"/>
      <point x="196" y="414" type="line"/>
      <point x="45" y="414" type="line"/>
      <point x="171" y="248" type="line"/>
    </contour>
    <contour>
      <point x="255" y="229" type="line"/>
      <point x="375" y="229" type="line"/>
      <point x="375" y="317" type="line"/>
      <point x="255" y="317" type="line"/>
    </contour>
    <contour>
      <point x="160" y="193" type="line"/>
      <point x="17" y="162" type="line"/>
      <point x="17" y="0" type="line"/>
      <point x="275" y="0" type="line"/>
      <point x="275" y="162" type="line"/>
      <point x="180" y="191" type="line"/>
    </contour>
    <contour>
      <point x="471" y="193" type="line"/>
      <point x="451" y="191" type="line"/>
      <point x="356" y="162" type="line"/>
      <point x="356" y="0" type="line"/>
      <point x="604" y="0" type="line"/>
      <point x="604" y="162" type="line"/>
    </contour>
  </outline>
</glyph>
<glyph name="y" format="2">
  <advance width="674"/>
  <unicode hex="0079"/>
  <guideline x="359" y="339" angle="0" identifier="U00DPrrQ6r"/>
  <outline>
    <contour>
      <point x="10" y="-144" type="line"/>
      <point x="55" y="-170"/>
      <point x="136" y="-220"/>
      <point x="230" y="-220" type="curve" smooth="yes"/>
      <point x="316" y="-220"/>
      <point x="416" y="-190"/>
      <point x="459" y="-55" type="curve" smooth="yes"/>
      <point x="588" y="353" type="line"/>
      <point x="564" y="327" type="line"/>
      <point x="655" y="378" type="line"/>
      <point x="655" y="540" type="line"/>
      <point x="352" y="540" type="line"/>
      <point x="352" y="378" type="line"/>
      <point x="434" y="331" type="line"/>
      <point x="434" y="355" type="line"/>
      <point x="336" y="40" type="line" smooth="yes"/>
      <point x="315" y="-27"/>
      <point x="279" y="-54"/>
      <point x="213" y="-54" type="curve"/>
      <point x="156" y="-54"/>
      <point x="109" y="-42"/>
      <point x="60" y="-25" type="curve"/>
    </contour>
    <contour>
      <point x="42" y="416" type="line"/>
      <point x="207" y="20" type="line"/>
      <point x="351" y="20" type="line"/>
      <point x="226" y="370" type="line"/>
      <point x="205" y="314" type="line"/>
      <point x="319" y="378" type="line"/>
      <point x="319" y="540" type="line"/>
      <point x="10" y="540" type="line"/>
      <point x="10" y="378" type="line"/>
      <point x="101" y="319" type="line"/>
    </contour>
    <contour>
      <point x="279" y="36" type="line"/>
      <point x="401" y="36" type="line"/>
      <point x="401" y="174" type="line"/>
      <point x="279" y="174" type="line"/>
    </contour>
  </outline>
</glyph>
<glyph name="z" format="2">
  <advance width="589"/>
  <unicode hex="007A"/>
  <outline>
    <contour>
      <point x="48" y="171" type="line"/>
      <point x="48" y="0" type="line"/>
      <point x="553" y="0" type="line"/>
      <point x="539" y="271" type="line"/>
      <point x="431" y="271" type="line"/>
      <point x="397" y="56" type="line"/>
      <point x="475" y="160" type="line"/>
      <point x="102" y="160" type="line"/>
      <point x="139" y="71" type="line"/>
      <point x="533" y="365" type="line"/>
      <point x="533" y="540" type="line"/>
      <point x="41" y="540" type="line"/>
      <point x="59" y="272" type="line"/>
      <point x="157" y="272" type="line"/>
      <point x="188" y="501" type="line"/>
      <point x="134" y="381" type="line"/>
      <point x="469" y="381" type="line"/>
      <point x="435" y="449" type="line"/>
    </contour>
    <contour>
      <point x="71" y="49" type="line"/>
      <point x="254" y="49" type="line"/>
      <point x="254" y="217" type="line"/>
      <point x="94" y="184" type="line"/>
    </contour>
    <contour>
      <point x="335" y="323" type="line"/>
      <point x="473" y="343" type="line"/>
      <point x="483" y="457" type="line"/>
      <point x="335" y="457" type="line"/>
    </contour>
  </outline>
</glyph>
<glyph name="exclamdown" format="2">
  <advance width="342"/>
  <unicode hex="00A1"/>
  <outline>
    <contour>
      <point x="255" y="304" type="line"/>
      <point x="83" y="304" type="line"/>
      <point x="31" y="-149" type="line"/>
      <point x="306" y="-149" type="line"/>
    </contour>
    <contour>
      <point x="170" y="610" type="curve" smooth="yes"/>
      <point x="68" y="610"/>
      <point x="31" y="577"/>
      <point x="31" y="482" type="curve" smooth="yes"/>
      <point x="31" y="381"/>
      <point x="68" y="356"/>
      <point x="170" y="356" type="curve" smooth="yes"/>
      <point x="269" y="356"/>
      <point x="306" y="381"/>
      <point x="306" y="482" type="curve" smooth="yes"/>
      <point x="306" y="577"/>
      <point x="269" y="610"/>
    </contour>
  </outline>
</glyph>
<glyph name="dieresis" format="2">
  <advance width="403"/>
  <unicode hex="00A8"/>
  <outline>
    <contour>
      <point x="97" y="603" type="curve" smooth="yes"/>
      <point x="145" y="603"/>
      <point x="168" y="625"/>
      <point x="168" y="676" type="curve" smooth="yes"/>
      <point x="168" y="728"/>
      <point x="142" y="750"/>
      <point x="97" y="750" type="curve"/>
      <point x="52" y="750"/>
      <point x="26" y="727"/>
      <point x="26" y="677" type="curve" smooth="yes"/>
      <point x="26" y="623"/>
      <point x="52" y="603"/>
    </contour>
    <contour>
      <point x="305" y="603" type="curve" smooth="yes"/>
      <point x="347" y="603"/>
      <point x="376" y="625"/>
      <point x="376" y="676" type="curve" smooth="yes"/>
      <point x="376" y="728"/>
      <point x="349" y="750"/>
      <point x="305" y="750" type="curve"/>
      <point x="259" y="750"/>
      <point x="234" y="727"/>
      <point x="234" y="677" type="curve" smooth="yes"/>
      <point x="234" y="623"/>
      <point x="260" y="603"/>
    </contour>
  </outline>
</glyph>
<glyph name="acute" format="2">
	<advance width="500"/>
	<unicode hex="00B4"/>
	<outline>
		<contour>
			<point x="132" y="682" type="line"/>
			<point x="200" y="626" type="line"/>
			<point x="397" y="763" type="line"/>
			<point x="252" y="894" type="line"/>
		</contour>
	</outline>
</glyph>
<glyph name="Ntilde" format="2">
  <advance width="784"/>
  <unicode hex="00D1"/>
  <outline>
    <contour>
      <point x="512" y="938" type="curve"/>
      <point x="553" y="938"/>
      <point x="579" y="959"/>
      <point x="579" y="1019" type="curve"/>
      <point x="656" y="1019" type="line"/>
      <point x="656" y="883"/>
      <point x="629" y="824"/>
      <point x="529" y="824" type="curve" smooth="yes"/>
      <point x="465" y="824"/>
      <point x="440" y="840"/>
      <point x="422" y="867" type="curve" smooth="yes"/>
      <point x="417" y="873" type="line" smooth="yes"/>
      <point x="405" y="892"/>
      <point x="388" y="907"/>
      <point x="357" y="907" type="curve" smooth="yes"/>
      <point x="315" y="907"/>
      <point x="289" y="889"/>
      <point x="289" y="832" type="curve"/>
      <point x="215" y="832" type="line"/>
      <point x="215" y="963"/>
      <point x="239" y="1022"/>
      <point x="339" y="1022" type="curve"/>
      <point x="401" y="1022"/>
      <point x="432" y="1006"/>
      <point x="450" y="979" type="curve" smooth="yes"/>
      <point x="454" y="973" type="line" smooth="yes"/>
      <point x="478" y="938"/>
      <point x="485" y="938"/>
    </contour>
    <component base="N" xOffset="9"/>
  </outline>
</glyph>
<glyph name="aacute" format="2">
  <advance width="580"/>
  <unicode hex="00E1"/>
  <outline>
    <contour>
      <point x="167" y="692" type="line"/>
      <point x="204" y="637" type="line"/>
      <point x="439" y="743" type="line"/>
      <point x="357" y="862" type="line"/>
    </contour>
    <component base="a"/>
  </outline>
</glyph>
<glyph name="iacute" format="2">
  <advance width="324"/>
  <unicode hex="00ED"/>
  <outline>
    <contour>
      <point x="26" y="0" type="line"/>
      <point x="318" y="0" type="line"/>
      <point x="318" y="152" type="line"/>
      <point x="226" y="199" type="line"/>
      <point x="253" y="85" type="line"/>
      <point x="253" y="540" type="line"/>
      <point x="26" y="540" type="line"/>
      <point x="26" y="378" type="line"/>
      <point x="155" y="320" type="line"/>
      <point x="97" y="448" type="line"/>
      <point x="97" y="92" type="line"/>
      <point x="129" y="199" type="line"/>
      <point x="26" y="152" type="line"/>
    </contour>
    <component base="acute" xOffset="-70" yOffset="1"/>
  </outline>
</glyph>
<glyph name="uacute" format="2">
  <advance width="670"/>
  <unicode hex="00FA"/>
  <outline>
    <component base="u"/>
    <contour>
      <point x="195" y="692" type="line"/>
      <point x="232" y="637" type="line"/>
      <point x="467" y="743" type="line"/>
      <point x="385" y="862" type="line"/>
    </contour>
  </outline>
  <guideline angle="0" x="0" y="105"/>
</glyph>
<glyph name="dotlessi" format="2">
  <advance width="324"/>
  <unicode hex="0131"/>
  <outline>
    <contour>
      <point x="26" y="0" type="line"/>
      <point x="308" y="0" type="line"/>
      <point x="308" y="152" type="line"/>
      <point x="226" y="199" type="line"/>
      <point x="253" y="85" type="line"/>
      <point x="253" y="540" type="line"/>
      <point x="26" y="540" type="line"/>
      <point x="26" y="378" type="line"/>
      <point x="155" y="320" type="line"/>
      <point x="97" y="448" type="line"/>
      <point x="97" y="92" type="line"/>
      <point x="129" y="199" type="line"/>
      <point x="26" y="152" type="line"/>
    </contour>
  </outline>
</glyph>
<glyph name="dotaccent" format="2">
  <advance width="324"/>
  <unicode hex="02D9"/>
  <outline>
    <contour>
      <point x="164" y="633" type="curve" smooth="yes"/>
      <point x="243" y="633"/>
      <point x="267" y="654"/>
      <point x="267" y="727" type="curve" smooth="yes"/>
      <point x="267" y="800"/>
      <point x="243" y="822"/>
      <point x="164" y="822" type="curve" smooth="yes"/>
      <point x="85" y="822"/>
      <point x="61" y="800"/>
      <point x="61" y="728" type="curve" smooth="yes"/>
      <point x="61" y="657"/>
      <point x="85" y="633"/>
    </contour>
  </outline>
</glyph>
<glyph name="tilde" format="2">
  <advance width="493"/>
  <unicode hex="02DC"/>
  <outline>
    <contour>
      <point x="111" y="681" type="curve"/>
      <point x="148" y="712" type="line"/>
      <point x="133" y="627" type="line"/>
      <point x="36" y="627" type="line"/>
      <point x="35" y="704" type="line"/>
      <point x="35" y="729"/>
      <point x="53" y="807"/>
      <point x="148" y="807" type="curve" smooth="yes"/>
      <point x="252" y="807"/>
      <point x="253" y="734"/>
      <point x="318" y="734" type="curve" smooth="yes"/>
      <point x="355" y="734"/>
      <point x="371" y="752"/>
      <point x="371" y="752" type="curve"/>
      <point x="334" y="721" type="line"/>
      <point x="349" y="806" type="line"/>
      <point x="446" y="806" type="line"/>
      <point x="447" y="729" type="line"/>
      <point x="447" y="704"/>
      <point x="429" y="626"/>
      <point x="334" y="626" type="curve" smooth="yes"/>
      <point x="230" y="626"/>
      <point x="229" y="699"/>
      <point x="164" y="699" type="curve" smooth="yes"/>
      <point x="127" y="699"/>
      <point x="111" y="681"/>
    </contour>
  </outline>
</glyph>
<glyph name="K.alt" format="2">
  <advance width="894"/>
  <guideline x="456" identifier="lu8NWPstnS"/>
  <outline>
    <contour>
      <point x="472" y="307" type="line"/>
      <point x="261" y="307" type="line"/>
      <point x="261" y="431" type="line"/>
      <point x="472" y="431" type="line"/>
    </contour>
    <contour>
      <point x="48" y="0" type="line"/>
      <point x="48" y="152" type="line"/>
      <point x="156" y="191" type="line"/>
      <point x="133" y="150" type="line"/>
      <point x="133" y="590" type="line"/>
      <point x="156" y="550" type="line"/>
      <point x="48" y="588" type="line"/>
      <point x="48" y="740" type="line"/>
      <point x="371" y="740" type="line"/>
      <point x="371" y="588" type="line"/>
      <point x="244.271" y="544" type="line"/>
      <point x="283" y="590" type="line"/>
      <point x="283" y="150" type="line"/>
      <point x="250.998" y="195.673" type="line"/>
      <point x="371" y="152" type="line"/>
      <point x="371" y="0" type="line"/>
    </contour>
    <contour>
      <point x="552.567" y="152" type="line"/>
      <point x="366" y="340" type="line"/>
      <point x="345" y="346" type="line"/>
      <point x="550.325" y="598.655" type="line"/>
      <point x="572.747" y="544" type="line"/>
      <point x="456" y="589" type="line"/>
      <point x="456" y="740" type="line"/>
      <point x="788" y="740" type="line"/>
      <point x="788" y="588.987" type="line"/>
      <point x="663" y="540" type="line"/>
      <point x="733" y="588" type="line"/>
      <point x="482" y="298" type="line"/>
      <point x="517" y="397" type="line"/>
      <point x="750" y="152" type="line"/>
      <point x="677.007" y="205.399" type="line"/>
      <point x="809" y="156" type="line"/>
      <point x="809" y="0" type="line"/>
      <point x="456" y="0" type="line"/>
      <point x="456" y="154" type="line"/>
      <point x="564.899" y="195.673" type="line"/>
    </contour>
  </outline>
</glyph>
<glyph name="acute.cap" format="2">
	<advance width="500"/>
	<outline>
		<contour>
			<point x="152" y="873" type="line"/>
			<point x="208" y="827" type="line"/>
			<point x="399" y="957" type="line"/>
			<point x="266" y="1078" type="line"/>
		</contour>
	</outline>
</glyph>
